<?xml version="1.0" encoding="UTF-8"?>
<svg xmlns="http://www.w3.org/2000/svg" xmlns:xlink="http://www.w3.org/1999/xlink" width="800.0px" height="500.0px" viewBox="0 0 800.0 500.0" version="1.1">

<defs>
<!-- polycosvg ratio="1.000000" offsetx="0.000000" offsety="0.000000" / -->
</defs><g>
<path style="fill:rgb(100.0%,100.0%,100.0%);fill-rule:evenodd;stroke:none;" name="Path No.0" d="M 0.0 500.0 C 9.670359 500.0 19.34199 500.0 29.0 500.0 C 29.0 499.50067 29.0 498.99338 29.0 498.5 C 18.568676 484.38763 9.172313 469.18018 0.5 454.0 C -0.89978164 468.98605 0.733115 484.83234 0.0 500.0 Z M 31.0 140.0 C 33.002853 140.0 35.00748 140.0 37.0 140.0 C 37.0 136.49028 37.0 132.99954 37.0 129.5 C 37.169968 128.9901 37.331684 128.50494 37.5 128.0 C 40.547337 133.50558 42.887817 140.99239 51.0 140.0 C 51.0 132.00677 51.0 123.993225 51.0 116.0 C 49.34409 116.17543 47.03228 116.15531 45.882145 117.32456 C 45.103043 118.91991 45.187763 121.45649 44.946823 122.870834 C 45.018303 123.95015 44.884106 124.98808 44.5 126.0 C 42.476463 120.69223 38.74229 112.94498 31.0 117.0 C 31.0 124.679474 31.0 132.33595 31.0 140.0 Z M 31.0 393.0 C 32.677834 393.0 34.330612 393.0 36.0 393.0 C 36.051407 390.54306 35.808823 387.19473 37.5 385.0 C 38.3882 387.11584 37.71915 390.35507 38.0 393.0 C 39.677834 393.0 41.330612 393.0 43.0 393.0 C 43.0 390.33414 43.0 387.66284 43.0 385.0 C 43.663906 385.0 44.339565 385.0 45.0 385.0 C 45.0 387.66586 45.0 390.33716 45.0 393.0 C 46.677834 393.0 48.330612 393.0 50.0 393.0 C 49.989605 391.33273 50.16198 389.63144 50.5 388.0 C 51.50437 393.3024 56.421684 393.15848 60.086662 393.0 C 60.736954 393.0 61.357456 393.0 62.0 393.0 C 62.22426 389.1925 63.370197 385.17032 61.31789 381.69235 C 59.404484 378.74866 53.57259 380.48886 51.88272 382.15225 C 50.995075 382.71814 50.854057 384.2934 50.5 385.0 C 49.97299 379.76828 45.29322 379.86246 41.68184 379.76837 C 38.12214 379.29376 34.56443 379.98038 31.0 380.0 C 31.0 384.3298 31.0 388.6724 31.0 393.0 Z M 38.0 315.0 C 39.997684 315.0 42.002316 315.0 44.0 315.0 C 44.0 311.49026 44.0 307.99954 44.0 304.5 C 44.169968 303.99008 44.331684 303.50494 44.5 303.0 C 47.547337 308.50558 49.887817 315.99237 58.0 315.0 C 58.0 307.00677 58.0 298.99323 58.0 291.0 C 56.34409 291.17545 54.03228 291.1553 52.882145 292.32455 C 52.103043 293.91992 52.187763 296.45648 51.946823 297.87085 C 52.018303 298.95016 51.884106 299.9881 51.5 301.0 C 49.476463 295.69223 45.74229 287.94498 38.0 292.0 C 38.0 299.67947 38.0 307.33594 38.0 315.0 Z M 40.0 206.0 C 40.314148 212.86649 39.445023 221.18033 40.72248 227.34978 C 45.223118 231.47853 56.932453 228.28871 57.56359 223.52069 C 58.464592 220.19695 56.73372 217.36108 56.761345 214.35052 C 56.776768 211.5302 57.374077 207.08582 53.177418 205.96513 C 49.13477 204.31715 43.241165 205.0996 40.0 206.0 Z M 43.0 33.0 C 46.05693 32.48596 50.189682 31.613077 52.0 34.0 C 51.066982 35.935818 48.987286 36.806854 47.0 37.0 C 46.435223 40.42898 46.56791 44.464474 46.48796 47.674873 C 45.829144 52.72727 49.06508 53.522766 53.0 53.0 C 53.329315 49.43453 52.41005 44.899284 54.025536 42.15699 C 57.579765 39.39663 60.840416 34.169773 57.0661 29.069746 C 53.995815 24.627176 47.275963 26.228462 43.0 27.0 C 43.0 28.99989 43.0 31.004519 43.0 33.0 Z M 47.0 214.0 C 48.671165 214.09113 50.086777 212.68535 50.0 211.0 C 48.997368 211.0 47.989502 211.0 47.0 211.0 C 47.0 212.00264 47.0 213.0105 47.0 214.0 Z M 47.0 224.0 C 49.15475 223.76439 51.513454 223.04942 51.0 220.0 C 49.613144 219.8839 48.378708 219.11058 47.0 219.0 C 47.0 220.67978 47.0 222.32176 47.0 224.0 Z M 71.0 139.0 C 71.0 136.99715 71.0 134.99252 71.0 133.0 C 67.24905 133.76814 64.50301 133.6853 61.29712 132.46397 C 60.21489 129.38835 60.153122 126.14884 61.0 123.0 C 64.33455 122.195656 67.630486 122.43989 71.0 123.0 C 71.0 120.99715 71.0 118.992516 71.0 117.0 C 66.795395 115.85914 61.33176 115.55979 57.660873 117.43811 C 54.37418 119.89332 52.991085 124.79326 53.149296 128.36421 C 53.133026 137.50351 59.105396 141.06773 66.39828 139.81358 C 67.96784 139.69534 69.48125 139.36 71.0 139.0 Z M 56.0 388.3125 C 56.33842 389.05884 57.505215 388.7979 58.060238 388.67902 C 58.369755 388.62006 58.699635 388.55722 59.0 388.5 C 58.003014 388.32874 57.00953 388.08572 56.0 388.0 C 56.0 388.10416 56.0 388.20834 56.0 388.3125 Z " />

<path style="fill:rgb(46.27451%,46.27451%,46.27451%);fill-rule:evenodd;stroke:none;" name="Path No.1" d="M 36.5 125.0 C 36.79455 124.35721 36.984505 123.701836 37.0 123.0 C 36.11602 123.057526 35.935356 123.77294 36.16667 124.48133 C 36.277782 124.65422 36.38889 124.82711 36.5 125.0 Z M 43.5 300.0 C 43.79455 299.3572 43.984505 298.70184 44.0 298.0 C 43.11602 298.05753 42.935356 298.77295 43.16667 299.48132 C 43.27451 299.64914 43.40105 299.84604 43.5 300.0 Z " />

<path style="fill:rgb(0.0%,0.0%,0.0%);fill-rule:evenodd;stroke:none;" name="Path No.2" d="M 46.0 245.0 C 46.0 255.00836 46.0 264.99164 46.0 275.0 C 40.201466 275.0 34.398537 275.0 28.6 275.0 C 21.422886 274.4474 10.107645 273.8257 10.076764 285.1891 C 9.872457 293.91116 10.101955 302.61697 10.0 311.3268 C 9.883404 318.21643 8.029409 329.72046 18.993252 330.81845 C 27.644814 331.27826 36.346947 330.78226 45.0 331.0 C 45.0 341.33813 45.0 351.67255 45.0 362.0 C 32.63701 362.66202 22.236973 374.7397 23.049204 386.9321 C 22.984898 400.02454 35.695133 411.10474 48.51349 409.93423 C 61.797493 409.8213 72.41476 397.06363 70.91177 384.0939 C 70.43446 372.50296 59.532513 362.10648 48.0 362.0 C 48.0 351.66187 48.0 341.32745 48.0 331.0 C 54.40463 331.0 60.795372 331.0 67.2 331.0 C 71.65814 330.7839 77.123535 331.4943 81.06127 330.1199 C 88.69227 326.62698 86.63923 319.16992 87.0 312.4881 C 87.0 305.53842 87.0 298.63788 87.0 291.70404 C 86.98096 287.60382 87.377304 283.23032 85.462296 279.44766 C 81.43127 273.73328 73.969246 275.12833 68.526665 275.0 C 62.025047 275.0 55.501167 275.0 49.0 275.0 C 49.0 264.99164 49.0 255.00836 49.0 245.0 C 55.200478 245.0 61.383274 245.0 67.56939 245.0 C 75.16019 245.66277 87.24285 246.37291 86.9507 234.21696 C 87.086975 225.09807 86.92946 215.99759 87.0 206.89088 C 87.72893 199.54205 87.61835 188.59521 76.229095 189.04955 C 67.49577 188.91362 58.73206 189.06985 50.0 189.0 C 50.0 178.32187 50.0 167.67279 50.0 157.0 C 56.200478 157.0 62.383274 157.0 68.56939 157.0 C 76.16019 157.66277 88.24285 158.37291 87.9507 146.21696 C 88.086975 137.09807 87.92946 127.99759 88.0 118.890884 C 87.890854 114.72508 88.47507 109.4595 86.64581 105.92208 C 83.02713 99.65065 74.969574 101.124405 69.526665 101.0 C 63.025047 101.0 56.501167 101.0 50.0 101.0 C 50.0 90.00579 50.0 78.99421 50.0 68.0 C 56.60985 68.0 63.200592 68.0 69.8 68.0 C 74.44161 67.79636 80.13677 68.501595 84.2361 67.06444 C 91.5015 64.02409 89.899055 54.959797 90.0 48.89426 C 90.0 41.78203 90.0 34.62856 90.0 27.516329 C 89.961975 23.372072 90.49694 18.444637 87.35153 15.177003 C 83.0292 10.537067 74.53485 12.486047 69.06634 12.0 C 62.503384 12.0 55.948368 12.0 49.401302 12.0 C 40.473965 12.138857 31.521315 11.82551 22.607124 12.1069 C 11.010957 12.497525 12.887019 24.773163 13.0 32.293385 C 13.0 38.041664 13.0 43.78203 13.0 49.514473 C 12.599914 56.441566 11.68576 67.41448 22.592657 67.88392 C 30.729683 68.1786 38.86954 67.86009 47.0 68.0 C 47.0 78.99421 47.0 90.00579 47.0 101.0 C 41.201466 101.0 35.398537 101.0 29.6 101.0 C 22.422886 100.447395 11.107645 99.82571 11.076764 111.18908 C 10.872457 119.91118 11.101955 128.61696 11.0 137.32681 C 10.705113 144.45578 9.164907 156.2367 20.594679 156.88399 C 29.397667 157.18509 38.20908 156.85358 47.0 157.0 C 47.0 167.67813 47.0 178.32721 47.0 189.0 C 40.802883 189.0 34.59712 189.0 28.4 189.0 C 20.991611 188.35114 9.523867 188.10237 10.028771 199.75438 C 9.94672 208.63448 10.04369 217.48627 10.0 226.36406 C 9.459029 233.54442 8.824664 244.88892 20.17827 244.92296 C 28.789238 245.12752 37.395454 244.89815 46.0 245.0 Z M 32.0 139.0 C 33.34405 139.0 34.663494 139.0 36.0 139.0 C 36.606144 134.0774 35.22719 128.79771 36.5 124.0 C 41.035107 128.96762 42.84623 139.49785 50.0 139.0 C 50.0 131.66089 50.0 124.33531 50.0 117.0 C 49.336094 117.0 48.660435 117.0 48.0 117.0 C 44.25163 119.80324 47.31835 126.66774 45.5 131.0 C 42.7988 125.31729 39.212936 114.56808 32.0 118.0 C 32.0 124.99912 32.0 132.00127 32.0 139.0 Z M 32.0 392.0 C 32.983627 392.0 34.016373 392.0 35.0 392.0 C 34.89236 388.743 35.1028 385.3406 37.5 383.0 C 37.999336 383.0 38.50663 383.0 39.0 383.0 C 39.0 385.98996 39.0 389.02234 39.0 392.0 C 39.983627 392.0 41.016373 392.0 42.0 392.0 C 42.0 389.33414 42.0 386.66284 42.0 384.0 C 43.340027 383.66498 44.662235 383.33444 46.0 383.0 C 46.0 385.98996 46.0 389.02234 46.0 392.0 C 46.983627 392.0 48.016373 392.0 49.0 392.0 C 48.494316 388.80515 49.91922 383.3547 47.12507 381.6152 C 44.24252 381.03442 40.966305 381.96606 38.5 380.0 C 36.42271 381.73868 34.28347 381.40332 32.0 381.0 C 32.0 384.66156 32.0 388.34897 32.0 392.0 Z M 39.0 314.0 C 40.34405 314.0 41.663494 314.0 43.0 314.0 C 43.602646 309.0843 42.23069 303.8037 43.5 299.0 C 48.035107 303.96762 49.84623 314.49786 57.0 314.0 C 57.0 306.65744 57.0 299.33188 57.0 292.0 C 56.336094 292.0 55.660435 292.0 55.0 292.0 C 51.25163 294.80322 54.31835 301.66772 52.5 306.0 C 49.7988 300.3173 46.212936 289.56808 39.0 293.0 C 39.0 299.9991 39.0 307.00128 39.0 314.0 Z M 54.0 216.25 C 55.143215 214.32507 56.32368 212.3677 55.466614 209.63194 C 53.630165 207.40918 51.318222 206.05663 48.448322 206.11292 C 46.13212 205.84698 43.310326 206.16669 41.0 207.0 C 41.148056 213.21466 40.618668 220.714 41.699825 226.29645 C 45.75666 230.70885 56.759937 226.73988 56.5045 222.09438 C 56.81812 220.01031 55.63683 218.11526 54.0 216.25 Z M 44.5 32.0 C 46.73399 30.503319 49.808765 30.102226 52.07866 32.278816 C 53.510166 34.71523 51.187603 37.9389 48.0 38.0 C 47.680737 40.49646 47.801456 42.662933 48.0 45.0 C 49.34405 45.0 50.663494 45.0 52.0 45.0 C 51.61209 40.232056 59.322567 37.989376 57.05201 31.905088 C 54.807915 25.674995 48.9437 27.17535 44.0 28.0 C 43.98154 29.355848 44.046688 30.71863 44.5 32.0 Z M 46.0 215.0 C 49.60829 215.5783 51.552547 213.22409 51.0 210.0 C 49.61634 209.82973 48.108322 208.96225 46.97613 209.77057 C 45.80611 210.5541 46.014427 212.58781 46.0 213.63414 C 46.0 214.09468 46.0 214.54663 46.0 215.0 Z M 46.0 225.0 C 49.197937 225.95274 55.02558 222.83092 50.959824 219.07289 C 49.545494 218.12181 47.4877 218.02892 46.0 218.0 C 46.0 220.34787 46.0 222.6611 46.0 225.0 Z M 52.0 52.0 C 52.0 50.32979 52.0 48.660713 52.0 47.0 C 49.593243 46.236202 45.249245 48.242077 48.25482 51.258385 C 49.353485 52.027622 50.72761 52.007053 52.0 52.0 Z M 61.0 392.0 C 61.020443 390.9566 60.892548 389.9678 60.5 389.0 C 58.91352 390.03577 56.663715 389.97696 55.0 390.0 C 55.0 389.0164 55.0 387.9836 55.0 387.0 C 57.330044 387.0 59.677265 387.0 62.0 387.0 C 62.0 386.50067 62.0 385.99338 62.0 385.5 C 61.327217 382.54114 57.33933 379.12518 54.017826 382.167 C 52.749107 383.14954 52.086987 384.12784 51.938797 385.63828 C 51.574253 386.68027 52.313034 388.68155 52.85659 389.65512 C 54.34428 391.48236 56.81435 392.1259 59.66884 391.9992 C 60.10788 392.00006 60.608067 392.0002 61.0 392.0 Z M 70.0 138.0 C 70.0 136.65594 70.0 135.3365 70.0 134.0 C 68.08534 134.47318 66.1501 134.92142 64.5 136.0 C 62.015675 134.38539 60.015766 133.59125 59.507706 130.70901 C 58.87903 127.8057 59.58386 124.862236 60.0 122.0 C 61.661694 121.70703 63.19748 121.05198 64.5 120.0 C 66.14493 121.133965 68.1051 121.484535 70.0 122.0 C 70.0 120.65595 70.0 119.3365 70.0 118.0 C 66.19335 116.89956 62.030224 116.68736 58.431904 118.55104 C 55.790497 120.71957 54.156868 125.038345 54.270733 127.81483 C 53.963917 135.07858 59.11255 139.78072 65.678 138.7991 C 67.132195 138.66838 68.59128 138.34814 70.0 138.0 Z M 59.0 384.5 C 57.907017 383.10883 56.556915 382.84152 55.0 383.0 C 54.906925 384.90842 56.411587 385.24362 57.852917 384.93503 C 58.293858 384.88928 58.68163 384.7534 59.0 384.5 Z " />
</g>
</svg>
