<?xml version="1.0" encoding="UTF-8"?>
<svg xmlns="http://www.w3.org/2000/svg" xmlns:xlink="http://www.w3.org/1999/xlink" width="800.0px" height="500.0px" viewBox="0 0 800.0 500.0" version="1.1">

<defs>
<!-- polycosvg ratio="1.000000" offsetx="0.000000" offsety="0.000000" / -->
</defs><g>
<path style="fill:rgb(100.0%,100.0%,100.0%);fill-rule:evenodd;stroke:none;" name="Path No.30" d="M 0.0 500.0 C 9.670359 500.0 19.34199 500.0 29.0 500.0 C 29.0 499.50067 29.0 498.99338 29.0 498.5 C 18.568676 484.38763 9.172313 469.18018 0.5 454.0 C -0.89978164 468.98605 0.733115 484.83234 0.0 500.0 Z M 30.0 51.0 C 32.002853 51.0 34.00748 51.0 36.0 51.0 C 36.0 47.49028 36.0 43.99954 36.0 40.5 C 36.169968 39.990097 36.331684 39.504948 36.5 39.0 C 39.547337 44.505585 41.887817 51.992382 50.0 51.0 C 50.0 43.00677 50.0 34.99323 50.0 27.0 C 48.34409 27.17543 46.03228 27.155313 44.882145 28.324562 C 44.103043 29.919909 44.187763 32.45649 43.946823 33.870834 C 44.018303 34.950153 43.884106 35.988087 43.5 37.0 C 41.476463 31.69223 37.74229 23.944979 30.0 28.0 C 30.0 35.679478 30.0 43.33595 30.0 51.0 Z M 31.0 310.0 C 32.677834 310.0 34.330612 310.0 36.0 310.0 C 36.051407 307.54306 35.808823 304.19473 37.5 302.0 C 38.3882 304.11584 37.71915 307.35507 38.0 310.0 C 39.677834 310.0 41.330612 310.0 43.0 310.0 C 43.0 307.33414 43.0 304.66284 43.0 302.0 C 43.663906 302.0 44.339565 302.0 45.0 302.0 C 45.0 304.66586 45.0 307.33716 45.0 310.0 C 46.677834 310.0 48.330612 310.0 50.0 310.0 C 49.989605 308.33273 50.16198 306.63144 50.5 305.0 C 51.50437 310.3024 56.421684 310.15848 60.086662 310.0 C 60.736954 310.0 61.357456 310.0 62.0 310.0 C 62.22426 306.1925 63.370197 302.17032 61.31789 298.69235 C 59.404484 295.74866 53.57259 297.48886 51.88272 299.15225 C 50.995075 299.71814 50.854057 301.2934 50.5 302.0 C 49.97299 296.76828 45.29322 296.86246 41.68184 296.76837 C 38.12214 296.29376 34.56443 296.98038 31.0 297.0 C 31.0 301.3298 31.0 305.6724 31.0 310.0 Z M 39.0 231.0 C 41.002853 231.0 43.00748 231.0 45.0 231.0 C 45.0 227.49028 45.0 223.99954 45.0 220.5 C 45.169968 219.9901 45.331684 219.50494 45.5 219.0 C 48.547337 224.50558 50.887817 231.99239 59.0 231.0 C 59.0 223.00677 59.0 214.99323 59.0 207.0 C 57.34409 207.17543 55.03228 207.15532 53.882145 208.32455 C 53.103043 209.9199 53.187763 212.45648 52.946823 213.87083 C 53.018303 214.95015 52.884106 215.98808 52.5 217.0 C 50.476463 211.69223 46.74229 203.94498 39.0 208.0 C 39.0 215.67947 39.0 223.33595 39.0 231.0 Z M 40.0 119.0 C 40.314148 125.86649 39.445023 134.18033 40.72248 140.34978 C 45.223118 144.47853 56.932453 141.28871 57.56359 136.52069 C 58.464592 133.19695 56.73372 130.36108 56.761345 127.35052 C 56.776768 124.53019 57.374077 120.085815 53.177418 118.96514 C 49.13477 117.317154 43.241165 118.09959 40.0 119.0 Z M 47.0 127.0 C 48.671165 127.09113 50.086777 125.685356 50.0 124.0 C 48.997368 124.0 47.989502 124.0 47.0 124.0 C 47.0 125.00263 47.0 126.0105 47.0 127.0 Z M 47.0 137.0 C 49.15475 136.76439 51.513454 136.04942 51.0 133.0 C 49.613144 132.8839 48.378708 132.11058 47.0 132.0 C 47.0 133.67978 47.0 135.32176 47.0 137.0 Z M 70.0 50.0 C 70.0 47.997147 70.0 45.99252 70.0 44.0 C 66.24905 44.76814 63.50301 44.685303 60.29712 43.463966 C 59.21489 40.38835 59.153122 37.148846 60.0 34.0 C 63.334545 33.195652 66.630486 33.439888 70.0 34.0 C 70.0 31.997149 70.0 29.992517 70.0 28.0 C 65.795395 26.859142 60.33176 26.559793 56.660873 28.438108 C 53.37418 30.89332 51.991085 35.79326 52.149296 39.36422 C 52.133026 48.503513 58.105396 52.067734 65.39828 50.813583 C 66.96784 50.69535 68.48125 50.359993 70.0 50.0 Z M 56.0 305.3125 C 56.33842 306.05884 57.505215 305.7979 58.060238 305.67902 C 58.369755 305.62006 58.699635 305.55722 59.0 305.5 C 58.003014 305.32874 57.00953 305.08572 56.0 305.0 C 56.0 305.10416 56.0 305.20834 56.0 305.3125 Z " />

<path style="fill:rgb(46.27451%,46.27451%,46.27451%);fill-rule:evenodd;stroke:none;" name="Path No.31" d="M 35.5 36.0 C 35.79455 35.35721 35.984505 34.70184 36.0 34.0 C 35.11602 34.057526 34.935356 34.77294 35.16667 35.481335 C 35.277782 35.65422 35.38889 35.82711 35.5 36.0 Z M 44.5 216.0 C 44.79455 215.35721 44.984505 214.70184 45.0 214.0 C 44.11602 214.05753 43.935356 214.77295 44.16667 215.48134 C 44.277782 215.65422 44.38889 215.82712 44.5 216.0 Z " />

<path style="fill:rgb(0.0%,0.0%,0.0%);fill-rule:evenodd;stroke:none;" name="Path No.32" d="M 47.0 68.0 C 47.0 79.34865 47.0 90.66202 47.0 102.0 C 40.9975 102.0 35.0025 102.0 29.0 102.0 C 21.471321 101.316536 9.71321 100.83451 10.049318 112.78298 C 9.913572 121.70367 10.069989 130.60599 10.0 139.51451 C 9.28222 146.9569 9.088707 158.34082 20.770908 157.95045 C 29.504227 158.08638 38.26794 157.93015 47.0 158.0 C 47.0 168.9942 47.0 180.0058 47.0 191.0 C 41.201466 191.0 35.398537 191.0 29.6 191.0 C 22.422886 190.4474 11.107645 189.82571 11.076764 201.18909 C 10.872457 209.91118 11.101955 218.61696 11.0 227.32681 C 10.883404 234.21643 9.029409 245.72047 19.993252 246.81845 C 28.644814 247.27827 37.346947 246.78224 46.0 247.0 C 46.0 257.67813 46.0 268.3272 46.0 279.0 C 33.226917 279.0411 22.172903 291.3689 23.049204 303.9321 C 22.984898 317.02454 35.695133 328.10474 48.51349 326.93423 C 61.797493 326.8213 72.41476 314.06363 70.91177 301.0939 C 70.43133 289.81427 60.157295 279.71054 49.0 279.0 C 49.0 268.32187 49.0 257.6728 49.0 247.0 C 55.41181 247.0 61.80255 247.0 68.2 247.0 C 72.65814 246.78392 78.123535 247.49431 82.06127 246.11989 C 89.69227 242.62698 87.63923 235.16994 88.0 228.48811 C 88.0 221.56009 88.0 214.63206 88.0 207.70404 C 87.98096 203.60384 88.377304 199.23032 86.462296 195.44765 C 82.43127 189.73328 74.969246 191.12831 69.526665 191.0 C 63.025047 191.0 56.501167 191.0 50.0 191.0 C 50.0 180.0058 50.0 168.9942 50.0 158.0 C 56.00463 158.0 61.99537 158.0 68.0 158.0 C 75.52868 158.68347 87.28679 159.1655 86.95068 147.21703 C 87.086426 138.29634 86.93001 129.39401 87.0 120.48549 C 87.71778 113.043106 87.91129 101.65919 76.229095 102.04954 C 67.49577 101.91363 58.73206 102.06986 50.0 102.0 C 50.0 90.65135 50.0 79.33798 50.0 68.0 C 56.00463 68.0 61.99537 68.0 68.0 68.0 C 75.52868 68.683464 87.28679 69.16549 86.95068 57.21702 C 87.086426 48.296333 86.93001 39.39401 87.0 30.485485 C 87.72227 23.037329 87.90446 11.6383505 76.20648 12.049125 C 67.25321 11.913875 58.32123 12.06975 49.380856 12.0 C 40.222294 12.0217085 31.099974 11.973526 21.95636 12.014296 C 17.820625 11.723133 13.413477 13.059076 11.3295765 16.920052 C 9.518714 20.076242 10.121531 25.023304 10.0 29.263283 C 10.0 35.37003 10.0 41.467785 10.0 47.57094 C 9.629718 55.050682 8.027227 67.624825 20.17947 67.923 C 29.119967 68.12932 38.060783 67.896355 47.0 68.0 Z M 31.0 50.0 C 32.34405 50.0 33.663494 50.0 35.0 50.0 C 35.602646 45.084293 34.23069 39.803703 35.5 35.0 C 40.035107 39.967613 41.84623 50.497852 49.0 50.0 C 49.0 42.65745 49.0 35.331882 49.0 28.0 C 48.336094 28.0 47.660435 28.0 47.0 28.0 C 43.25163 30.803234 46.31835 37.667736 44.5 42.0 C 41.7988 36.31729 38.212936 25.568079 31.0 29.0 C 31.0 35.99912 31.0 43.001274 31.0 50.0 Z M 32.0 309.0 C 32.983627 309.0 34.016373 309.0 35.0 309.0 C 34.89236 305.743 35.1028 302.3406 37.5 300.0 C 37.999336 300.0 38.50663 300.0 39.0 300.0 C 39.0 302.9838 39.0 306.0162 39.0 309.0 C 39.983627 309.0 41.016373 309.0 42.0 309.0 C 42.0 306.33414 42.0 303.66284 42.0 301.0 C 43.340027 300.66498 44.662235 300.33444 46.0 300.0 C 46.0 302.9838 46.0 306.0162 46.0 309.0 C 46.983627 309.0 48.016373 309.0 49.0 309.0 C 48.494316 305.80515 49.91922 300.3547 47.12507 298.6152 C 44.24252 298.03442 40.966305 298.96606 38.5 297.0 C 36.42271 298.73868 34.28347 298.40332 32.0 298.0 C 32.0 301.66156 32.0 305.34897 32.0 309.0 Z M 40.0 230.0 C 41.34405 230.0 42.663494 230.0 44.0 230.0 C 44.602646 225.08429 43.23069 219.80371 44.5 215.0 C 49.035107 219.96762 50.84623 230.49785 58.0 230.0 C 58.0 222.65746 58.0 215.33188 58.0 208.0 C 57.336094 208.0 56.660435 208.0 56.0 208.0 C 52.25163 210.80324 55.31835 217.66774 53.5 222.0 C 50.7988 216.31729 47.212936 205.56808 40.0 209.0 C 40.0 215.99911 40.0 223.00127 40.0 230.0 Z M 54.0 129.25 C 55.143215 127.32507 56.32368 125.367714 55.466614 122.63194 C 53.630165 120.40918 51.318222 119.056625 48.448322 119.11291 C 46.13212 118.846985 43.310326 119.16668 41.0 120.0 C 41.148056 126.21467 40.618668 133.714 41.699825 139.29645 C 45.75666 143.70885 56.759937 139.73988 56.5045 135.09438 C 56.81812 133.01031 55.63683 131.11526 54.0 129.25 Z M 46.0 128.0 C 49.60829 128.5783 51.552547 126.22408 51.0 123.0 C 49.61634 122.82973 48.108322 121.96225 46.97613 122.77057 C 45.80611 123.55409 46.014427 125.587814 46.0 126.63414 C 46.0 127.09469 46.0 127.54663 46.0 128.0 Z M 46.0 138.0 C 49.197937 138.95274 55.02558 135.83092 50.959824 132.07289 C 49.545494 131.12181 47.4877 131.02892 46.0 131.0 C 46.0 133.34787 46.0 135.6611 46.0 138.0 Z M 61.0 309.0 C 61.020443 307.9566 60.892548 306.9678 60.5 306.0 C 58.91352 307.03577 56.663715 306.97696 55.0 307.0 C 55.0 306.012 55.0 304.97925 55.0 304.0 C 57.330044 304.0 59.677265 304.0 62.0 304.0 C 62.0 303.50067 62.0 302.99338 62.0 302.5 C 61.327217 299.54114 57.33933 296.12518 54.017826 299.167 C 52.749107 300.14954 52.086987 301.12784 51.938797 302.63828 C 51.574253 303.68027 52.313034 305.68155 52.85659 306.65512 C 54.34428 308.48236 56.81435 309.1259 59.66884 308.9992 C 60.10788 309.00006 60.608067 309.0002 61.0 309.0 Z M 69.0 49.0 C 69.0 47.65595 69.0 46.336506 69.0 45.0 C 67.08534 45.47317 65.1501 45.921413 63.5 47.0 C 61.015675 45.38539 59.015766 44.591248 58.507706 41.709015 C 57.87903 38.805702 58.58386 35.862236 59.0 33.0 C 60.661694 32.70703 62.19748 32.051975 63.5 31.0 C 65.14493 32.133965 67.1051 32.48453 69.0 33.0 C 69.0 31.655949 69.0 30.336504 69.0 29.0 C 65.19335 27.899559 61.030224 27.687363 57.431904 29.551039 C 54.790497 31.71957 53.156868 36.03834 53.270733 38.814827 C 52.963917 46.07858 58.11255 50.78072 64.678 49.799107 C 66.132195 49.668377 67.59128 49.348145 69.0 49.0 Z M 59.0 301.5 C 57.907017 300.10883 56.556915 299.84152 55.0 300.0 C 54.906925 301.90842 56.411587 302.24362 57.852917 301.93503 C 58.293858 301.88928 58.68163 301.7534 59.0 301.5 Z " />
</g>
</svg>
