<?xml version="1.0" encoding="UTF-8"?>
<svg xmlns="http://www.w3.org/2000/svg" xmlns:xlink="http://www.w3.org/1999/xlink" width="800.0px" height="500.0px" viewBox="0 0 800.0 500.0" version="1.1">

<defs>
<!-- polycosvg ratio="1.000000" offsetx="0.000000" offsety="0.000000" / -->
</defs><g>
<path style="fill:rgb(100.0%,100.0%,100.0%);fill-rule:evenodd;stroke:none;" name="Path No.104" d="M 0.0 500.0 C 9.670359 500.0 19.34199 500.0 29.0 500.0 C 29.0 499.50067 29.0 498.99338 29.0 498.5 C 18.568676 484.38763 9.172313 469.18018 0.5 454.0 C -0.89978164 468.98605 0.733115 484.83234 0.0 500.0 Z M 29.0 141.0 C 30.997684 141.0 33.002316 141.0 35.0 141.0 C 35.0 137.49028 35.0 133.99954 35.0 130.5 C 35.169968 129.9901 35.331684 129.50494 35.5 129.0 C 38.547337 134.50558 40.887817 141.99239 49.0 141.0 C 49.0 133.00677 49.0 124.993225 49.0 117.0 C 47.34409 117.17543 45.03228 117.15531 43.882145 118.32456 C 43.103043 119.91991 43.187763 122.45649 42.946823 123.870834 C 43.018303 124.95015 42.884106 125.98808 42.5 127.0 C 40.476463 121.69223 36.74229 113.94498 29.0 118.0 C 29.0 125.679474 29.0 133.33595 29.0 141.0 Z M 32.0 397.0 C 33.677834 397.0 35.330612 397.0 37.0 397.0 C 37.051407 394.54306 36.808823 391.19473 38.5 389.0 C 39.3882 391.11584 38.71915 394.35507 39.0 397.0 C 40.677834 397.0 42.330612 397.0 44.0 397.0 C 44.0 394.33414 44.0 391.66284 44.0 389.0 C 44.663906 389.0 45.339565 389.0 46.0 389.0 C 46.0 391.66586 46.0 394.33716 46.0 397.0 C 47.677834 397.0 49.330612 397.0 51.0 397.0 C 50.989605 395.33273 51.16198 393.63144 51.5 392.0 C 52.50437 397.3024 57.421684 397.15848 61.086662 397.0 C 61.736954 397.0 62.357456 397.0 63.0 397.0 C 63.22426 393.1925 64.37019 389.17032 62.31789 385.69235 C 60.404484 382.74866 54.57259 384.48886 52.88272 386.15225 C 51.995075 386.71814 51.854057 388.2934 51.5 389.0 C 50.97299 383.76828 46.29322 383.86246 42.68184 383.76837 C 39.12214 383.29376 35.56443 383.98038 32.0 384.0 C 32.0 388.3298 32.0 392.6724 32.0 397.0 Z M 34.0 50.0 C 36.330044 50.0 38.677265 50.0 41.0 50.0 C 41.0 47.155994 41.0 44.34118 41.0 41.5 C 41.169968 40.990097 41.331684 40.504948 41.5 40.0 C 42.8012 43.023182 43.396618 47.10132 45.400543 49.146576 C 49.397697 51.265923 51.723396 48.83151 52.69 45.34704 C 53.397427 43.59677 53.852333 41.76431 54.5 40.0 C 55.81286 43.155945 56.020737 46.630894 56.0 50.0 C 58.002853 50.0 60.00748 50.0 62.0 50.0 C 61.49401 42.746983 62.829407 33.65736 61.02975 27.234976 C 52.935955 23.173748 50.51553 31.424992 48.846226 37.339813 C 48.730816 37.559875 48.61541 37.779938 48.5 38.0 C 46.616318 35.042053 46.030693 31.428082 43.954433 28.572977 C 42.34601 25.021608 36.654068 26.287104 34.0 27.0 C 34.0 34.679478 34.0 42.33595 34.0 50.0 Z M 37.0 320.0 C 38.997684 320.0 41.002316 320.0 43.0 320.0 C 43.0 316.49026 43.0 312.99954 43.0 309.5 C 43.169968 308.99008 43.331684 308.50494 43.5 308.0 C 46.547337 313.50558 48.887817 320.99237 57.0 320.0 C 57.0 312.00677 57.0 303.99323 57.0 296.0 C 55.34409 296.17545 53.03228 296.1553 51.882145 297.32455 C 51.103043 298.91992 51.187763 301.45648 50.946823 302.87085 C 51.018303 303.95016 50.884106 304.9881 50.5 306.0 C 48.476463 300.69223 44.74229 292.94498 37.0 297.0 C 37.0 304.67947 37.0 312.33594 37.0 320.0 Z M 38.0 212.0 C 39.997684 212.0 42.002316 212.0 44.0 212.0 C 44.0 218.00337 44.0 224.01263 44.0 230.0 C 46.330044 230.0 48.677265 230.0 51.0 230.0 C 51.0 224.00462 51.0 217.99538 51.0 212.0 C 52.997684 212.0 55.002316 212.0 57.0 212.0 C 57.0 209.99715 57.0 207.99252 57.0 206.0 C 50.653435 206.0 44.3359 206.0 38.0 206.0 C 38.0 207.99768 38.0 210.00232 38.0 212.0 Z M 60.0 135.0 C 59.12712 135.03053 58.25302 135.30103 57.5 136.0 C 55.661503 134.5286 53.323692 134.1382 51.0 134.0 C 51.0 136.00285 51.0 138.00748 51.0 140.0 C 54.765335 140.96817 59.56841 141.4059 62.97872 140.10692 C 66.77775 138.95685 67.4241 133.28896 66.16577 130.22324 C 64.91399 126.565125 60.580734 125.83525 58.0 123.5 C 58.48541 123.01776 58.93661 122.53622 59.359375 122.0 C 61.440586 122.52383 63.42169 123.8939 66.0 124.0 C 66.0 122.00231 66.0 119.99769 66.0 118.0 C 59.94975 115.35559 48.421715 117.015434 52.124023 127.03751 C 53.132126 130.8723 59.24698 131.45241 60.0 135.0 Z M 57.0 392.3125 C 57.33842 393.05884 58.505215 392.7979 59.060238 392.67902 C 59.369755 392.62006 59.699635 392.55722 60.0 392.5 C 59.003014 392.32874 58.00953 392.08572 57.0 392.0 C 57.0 392.10416 57.0 392.20834 57.0 392.3125 Z " />

<path style="fill:rgb(46.27451%,46.27451%,46.27451%);fill-rule:evenodd;stroke:none;" name="Path No.105" d="M 34.5 126.0 C 34.79455 125.35721 34.984505 124.701836 35.0 124.0 C 34.11602 124.057526 33.935356 124.77294 34.16667 125.48133 C 34.277782 125.65422 34.38889 125.82711 34.5 126.0 Z M 42.5 305.0 C 42.79455 304.3572 42.984505 303.70184 43.0 303.0 C 42.11602 303.05753 41.935356 303.77295 42.16667 304.48132 C 42.27451 304.64914 42.40105 304.84604 42.5 305.0 Z " />

<path style="fill:rgb(0.0%,0.0%,0.0%);fill-rule:evenodd;stroke:none;" name="Path No.106" d="M 47.0 157.0 C 47.0 167.9942 47.0 179.0058 47.0 190.0 C 40.802883 190.0 34.59712 190.0 28.4 190.0 C 20.808939 189.33083 8.756624 188.64604 9.049303 200.78304 C 8.913024 209.90193 9.070542 219.00241 9.0 228.10912 C 8.2710705 235.45795 8.381653 246.40479 19.770908 245.95045 C 28.504225 246.08638 37.26794 245.93015 46.0 246.0 C 46.0 257.34863 46.0 268.66202 46.0 280.0 C 39.9975 280.0 34.0025 280.0 28.0 280.0 C 20.471321 279.31653 8.71321 278.8345 9.049318 290.783 C 8.913572 299.70367 9.069989 308.606 9.0 317.51453 C 8.28222 324.95688 8.088707 336.34082 19.770908 335.95047 C 28.504227 336.08636 37.26794 335.93015 46.0 336.0 C 46.0 346.00836 46.0 355.99164 46.0 366.0 C 33.63701 366.66202 23.236973 378.7397 24.049204 390.9321 C 23.984898 404.02454 36.695133 415.10474 49.51349 413.93423 C 62.797493 413.8213 73.41476 401.06363 71.91177 388.0939 C 71.43446 376.50296 60.532513 366.10648 49.0 366.0 C 49.0 355.99164 49.0 346.00836 49.0 336.0 C 55.00463 336.0 60.99537 336.0 67.0 336.0 C 74.52868 336.68347 86.28679 337.1655 85.95068 325.217 C 86.086426 316.29633 85.93001 307.394 86.0 298.48547 C 86.71778 291.04312 86.91129 279.65918 75.229095 280.04953 C 66.49577 279.91364 57.73206 280.06985 49.0 280.0 C 49.0 268.65137 49.0 257.33798 49.0 246.0 C 55.00463 246.0 60.99537 246.0 67.0 246.0 C 74.52868 246.68347 86.28679 247.1655 85.95068 235.21703 C 86.086426 226.29634 85.93001 217.39401 86.0 208.48549 C 86.55873 201.32321 87.12258 190.11098 75.82173 190.07704 C 67.21073 189.87247 58.604614 190.10185 50.0 190.0 C 50.0 179.0058 50.0 167.9942 50.0 157.0 C 55.795414 157.0 61.604588 157.0 67.4 157.0 C 74.58519 157.5526 85.88428 158.17429 85.92323 146.81091 C 86.12754 138.08882 85.89805 129.38304 86.0 120.67319 C 86.29488 113.54422 87.83509 101.763306 76.40532 101.11601 C 67.60233 100.81491 58.79092 101.14642 50.0 101.0 C 50.0 89.33761 50.0 77.65706 50.0 66.0 C 56.00463 66.0 61.99537 66.0 68.0 66.0 C 75.52868 66.683464 87.28679 67.16549 86.95068 55.21702 C 87.086426 46.296333 86.93001 37.39401 87.0 28.485485 C 87.72227 21.037329 87.90446 9.6383505 76.20648 10.049125 C 67.25321 9.913875 58.32123 10.06975 49.380856 10.0 C 40.433434 10.010022 31.499632 9.987778 22.555271 10.0066 C 18.326878 9.672541 13.869186 10.7645645 11.500033 14.565489 C 9.484154 18.496317 10.142713 23.104618 10.0 27.324232 C 10.0 33.4684 10.0 39.60465 10.0 45.732983 C 9.599515 53.18902 8.067559 65.648865 20.179468 65.923 C 29.119997 66.12932 38.060715 65.89635 47.0 66.0 C 47.0 77.66239 47.0 89.34294 47.0 101.0 C 40.602295 101.0 34.2195 101.0 27.83061 101.0 C 20.357195 100.36318 8.559128 99.87832 9.028775 111.75438 C 8.946713 121.03569 9.043695 130.29337 9.0 139.55946 C 9.088236 143.61487 8.559479 148.73326 10.402848 152.16245 C 14.023706 158.35635 22.075602 156.85263 27.473345 157.0 C 33.974926 157.0 40.498905 157.0 47.0 157.0 Z M 30.0 140.0 C 31.344051 140.0 32.663494 140.0 34.0 140.0 C 34.606144 135.0774 33.22719 129.79771 34.5 125.0 C 39.035107 129.96762 40.84623 140.49785 48.0 140.0 C 48.0 132.66089 48.0 125.33531 48.0 118.0 C 47.336094 118.0 46.660435 118.0 46.0 118.0 C 42.25163 120.80324 45.31835 127.66774 43.5 132.0 C 40.7988 126.31729 37.212936 115.56808 30.0 119.0 C 30.0 125.99912 30.0 133.00127 30.0 140.0 Z M 33.0 396.0 C 33.983627 396.0 35.016373 396.0 36.0 396.0 C 35.89236 392.743 36.1028 389.3406 38.5 387.0 C 38.999336 387.0 39.50663 387.0 40.0 387.0 C 40.0 389.98996 40.0 393.02234 40.0 396.0 C 40.983627 396.0 42.016373 396.0 43.0 396.0 C 43.0 393.33414 43.0 390.66284 43.0 388.0 C 44.340027 387.66498 45.662235 387.33444 47.0 387.0 C 47.0 389.98996 47.0 393.02234 47.0 396.0 C 47.983627 396.0 49.016373 396.0 50.0 396.0 C 49.494316 392.80515 50.91922 387.3547 48.12507 385.6152 C 45.24252 385.03442 41.966305 385.96606 39.5 384.0 C 37.42271 385.73868 35.28347 385.40332 33.0 385.0 C 33.0 388.66156 33.0 392.34897 33.0 396.0 Z M 35.0 49.0 C 36.677834 49.0 38.330612 49.0 40.0 49.0 C 40.0 44.161335 40.0 39.328 40.0 34.5 C 40.169968 33.990097 40.331684 33.504948 40.5 33.0 C 42.223186 37.404373 43.204792 42.08513 45.257233 46.34124 C 45.646946 49.005676 50.53345 49.357388 50.627098 46.590378 C 51.89507 44.34606 52.48409 41.77593 53.445282 39.40469 C 54.209923 37.62599 54.95412 35.861565 55.5 34.0 C 56.526043 38.92394 56.527092 44.012367 57.0 49.0 C 58.34405 49.0 59.663494 49.0 61.0 49.0 C 60.68577 42.46544 61.556416 34.52272 60.273453 28.659525 C 54.07649 23.267172 50.97832 35.00578 49.85174 38.38703 C 49.390602 39.55427 48.944103 40.943615 48.5 42.0 C 46.069782 35.653503 43.20187 24.020065 35.0 28.0 C 35.0 34.99912 35.0 42.001274 35.0 49.0 Z M 38.0 319.0 C 39.34405 319.0 40.663494 319.0 42.0 319.0 C 42.602646 314.0843 41.23069 308.8037 42.5 304.0 C 47.035107 308.96762 48.84623 319.49786 56.0 319.0 C 56.0 311.65744 56.0 304.33188 56.0 297.0 C 55.336094 297.0 54.660435 297.0 54.0 297.0 C 50.25163 299.80322 53.31835 306.66772 51.5 311.0 C 48.7988 305.3173 45.212936 294.56808 38.0 298.0 C 38.0 304.9991 38.0 312.00128 38.0 319.0 Z M 39.0 211.0 C 41.002853 211.0 43.00748 211.0 45.0 211.0 C 45.0 216.99538 45.0 223.00462 45.0 229.0 C 46.677834 229.0 48.330612 229.0 50.0 229.0 C 50.0 223.00462 50.0 216.99538 50.0 211.0 C 51.997684 211.0 54.002316 211.0 56.0 211.0 C 56.0 209.65594 56.0 208.3365 56.0 207.0 C 50.33126 207.0 44.664593 207.0 39.0 207.0 C 39.0 208.34007 39.0 209.66205 39.0 211.0 Z M 61.0 136.0 C 57.839848 137.02045 54.55891 135.96025 52.0 135.0 C 52.0 136.34406 52.0 137.6635 52.0 139.0 C 57.45766 141.46843 68.383575 139.75227 64.846054 130.56665 C 63.6872 126.998 57.577427 126.54693 57.0 123.0 C 58.64347 120.505356 62.77582 121.5691 64.5 123.0 C 64.947235 121.70788 65.016556 120.349304 65.0 119.0 C 60.552586 116.77778 49.585426 118.51608 53.376892 126.49766 C 54.729618 130.3885 61.34291 130.32484 61.0 136.0 Z M 62.0 396.0 C 62.020443 394.9566 61.892548 393.9678 61.5 393.0 C 59.91352 394.03577 57.663715 393.97696 56.0 394.0 C 56.0 393.0164 56.0 391.9836 56.0 391.0 C 58.330044 391.0 60.677265 391.0 63.0 391.0 C 63.0 390.50067 63.0 389.99338 63.0 389.5 C 62.327217 386.54114 58.33933 383.12518 55.017826 386.167 C 53.749107 387.14954 53.086987 388.12784 52.938797 389.63828 C 52.574253 390.68027 53.313034 392.68155 53.85659 393.65512 C 55.34428 395.48236 57.81435 396.1259 60.66884 395.9992 C 61.10788 396.00006 61.608067 396.0002 62.0 396.0 Z M 60.0 388.5 C 58.907017 387.10883 57.556915 386.84152 56.0 387.0 C 55.906925 388.90842 57.411587 389.24362 58.852917 388.93503 C 59.293858 388.88928 59.68163 388.7534 60.0 388.5 Z " />
</g>
</svg>
