<?xml version="1.0" encoding="UTF-8"?>
<svg xmlns="http://www.w3.org/2000/svg" xmlns:xlink="http://www.w3.org/1999/xlink" width="800.0px" height="500.0px" viewBox="0 0 800.0 500.0" version="1.1">

<defs>
<!-- polycosvg ratio="1.000000" offsetx="0.000000" offsety="0.000000" / -->
</defs><g>
<path style="fill:rgb(100.0%,100.0%,100.0%);fill-rule:evenodd;stroke:none;" name="Path No.6" d="M 0.0 500.0 C 9.670359 500.0 19.34199 500.0 29.0 500.0 C 29.0 499.50067 29.0 498.99338 29.0 498.5 C 18.568676 484.38763 9.172313 469.18018 0.5 454.0 C -0.89978164 468.98605 0.733115 484.83234 0.0 500.0 Z M 33.0 221.0 C 34.677834 221.0 36.330612 221.0 38.0 221.0 C 38.051407 218.54308 37.808823 215.19472 39.5 213.0 C 40.3882 215.11584 39.71915 218.35507 40.0 221.0 C 41.677834 221.0 43.330612 221.0 45.0 221.0 C 45.0 218.33414 45.0 215.66283 45.0 213.0 C 45.663906 213.0 46.339565 213.0 47.0 213.0 C 47.0 215.66586 47.0 218.33717 47.0 221.0 C 48.677834 221.0 50.330612 221.0 52.0 221.0 C 51.989605 219.33275 52.16198 217.63144 52.5 216.0 C 53.50437 221.30238 58.421684 221.15846 62.086662 221.0 C 62.736954 221.0 63.357456 221.0 64.0 221.0 C 64.22426 217.1925 65.37019 213.17033 63.31789 209.69237 C 61.404484 206.74866 55.57259 208.48888 53.88272 210.15225 C 52.995075 210.71814 52.854057 212.2934 52.5 213.0 C 51.97299 207.76826 47.29322 207.86246 43.68184 207.76837 C 40.12214 207.29375 36.56443 207.98038 33.0 208.0 C 33.0 212.3437 33.0 216.65851 33.0 221.0 Z M 38.0 49.5 C 38.0 49.999336 38.0 50.50663 38.0 51.0 C 40.330044 51.0 42.677265 51.0 45.0 51.0 C 45.151917 49.298985 45.595795 47.654106 46.0 46.0 C 48.330044 46.0 50.677265 46.0 53.0 46.0 C 53.151917 47.701015 53.595795 49.345894 54.0 51.0 C 56.330044 51.0 58.677265 51.0 61.0 51.0 C 61.0 50.500664 61.0 49.99337 61.0 49.5 C 58.529583 43.08094 56.725803 35.04053 53.65735 29.492868 C 52.713383 25.800941 45.80479 27.26742 45.137207 29.829712 C 43.34045 32.88663 42.494392 36.363148 41.263546 39.6506 C 40.385773 42.887474 38.709663 46.915833 38.0 49.5 Z M 39.0 142.0 C 41.002853 142.0 43.00748 142.0 45.0 142.0 C 45.0 138.49028 45.0 134.99954 45.0 131.5 C 45.169968 130.9901 45.331684 130.50494 45.5 130.0 C 48.547337 135.50558 50.887817 142.99239 59.0 142.0 C 59.0 134.00677 59.0 125.993225 59.0 118.0 C 57.34409 118.17543 55.03228 118.15531 53.882145 119.32456 C 53.103043 120.91991 53.187763 123.45649 52.946823 124.870834 C 53.018303 125.95015 52.884106 126.98808 52.5 128.0 C 50.476463 122.69223 46.74229 114.94498 39.0 119.0 C 39.0 126.679474 39.0 134.33595 39.0 142.0 Z M 50.0 41.0 C 50.04155 39.960896 49.944397 38.944378 49.5 38.0 C 47.86774 38.846977 47.29976 41.07737 50.0 41.0 Z M 58.0 216.3125 C 58.33842 217.05884 59.505215 216.79791 60.060238 216.679 C 60.369755 216.62004 60.699635 216.5572 61.0 216.5 C 60.003014 216.32872 59.00953 216.08572 58.0 216.0 C 58.0 216.10417 58.0 216.20833 58.0 216.3125 Z " />

<path style="fill:rgb(0.0%,0.0%,0.0%);fill-rule:evenodd;stroke:none;" name="Path No.7" d="M 47.0 68.0 C 47.0 79.34865 47.0 90.66202 47.0 102.0 C 41.201466 102.0 35.398537 102.0 29.6 102.0 C 22.422886 101.447395 11.107645 100.82571 11.076764 112.18908 C 10.872457 120.91118 11.101955 129.61696 11.0 138.32681 C 10.705113 145.45578 9.164907 157.2367 20.594679 157.88399 C 29.397667 158.18509 38.20908 157.85358 47.0 158.0 C 47.0 168.67813 47.0 179.32721 47.0 190.0 C 34.63701 190.66202 24.236973 202.73969 25.049204 214.9321 C 24.984898 228.02454 37.695133 239.10474 50.51349 237.93425 C 63.797493 237.82129 74.41476 225.06363 72.91177 212.09392 C 72.43446 200.50296 61.532513 190.10649 50.0 190.0 C 50.0 179.32187 50.0 168.67279 50.0 158.0 C 56.200478 158.0 62.383274 158.0 68.56939 158.0 C 76.16019 158.66277 88.24285 159.37291 87.9507 147.21696 C 88.086975 138.09807 87.92946 128.99759 88.0 119.890884 C 87.890854 115.72508 88.47507 110.4595 86.64581 106.92208 C 83.02713 100.65065 74.969574 102.124405 69.526665 102.0 C 63.025047 102.0 56.501167 102.0 50.0 102.0 C 50.0 90.65135 50.0 79.33798 50.0 68.0 C 56.200478 68.0 62.383274 68.0 68.56939 68.0 C 76.16019 68.662766 88.24285 69.37291 87.9507 57.216965 C 88.086975 48.098064 87.92946 38.99759 88.0 29.890882 C 87.890854 25.725082 88.47507 20.459503 86.64581 16.92208 C 83.01991 10.637363 74.90983 12.129586 69.44998 12.0 C 62.881172 12.0 56.35375 12.0 49.784943 12.0 C 40.629524 12.0398445 31.50068 11.9513235 22.361172 12.026497 C 18.266254 11.795963 13.904379 13.428176 12.11069 17.365295 C 10.1856785 20.418953 11.487156 25.78212 11.0 29.855394 C 11.0 35.765953 11.0 41.66983 11.0 47.57094 C 10.815261 54.818832 8.885068 67.11327 20.59468 67.88399 C 29.397635 68.18509 38.20915 67.853584 47.0 68.0 Z M 34.0 220.0 C 34.983627 220.0 36.016373 220.0 37.0 220.0 C 36.89236 216.743 37.1028 213.3406 39.5 211.0 C 39.999336 211.0 40.50663 211.0 41.0 211.0 C 41.0 213.98994 41.0 217.02235 41.0 220.0 C 41.983627 220.0 43.016373 220.0 44.0 220.0 C 44.0 217.33414 44.0 214.66283 44.0 212.0 C 45.340027 211.665 46.662235 211.33444 48.0 211.0 C 48.0 213.98994 48.0 217.02235 48.0 220.0 C 48.983627 220.0 50.016373 220.0 51.0 220.0 C 50.494316 216.80516 51.91922 211.3547 49.12507 209.61519 C 46.24252 209.03442 42.966305 209.96608 40.5 208.0 C 38.42271 209.73868 36.28347 209.40334 34.0 209.0 C 34.0 212.67546 34.0 216.33508 34.0 220.0 Z M 39.0 49.5 C 40.21437 50.310177 42.350582 49.76765 44.0 50.0 C 44.151917 48.298985 44.595795 46.654106 45.0 45.0 C 47.98995 45.0 51.022354 45.0 54.0 45.0 C 54.151917 46.701015 54.595795 48.345894 55.0 50.0 C 56.682728 49.98959 58.38693 50.00736 60.0 49.5 C 56.351295 43.13222 56.205105 34.77182 51.59339 28.849623 C 47.013752 26.853533 45.573402 31.055368 44.40243 34.483105 C 43.126656 38.109585 41.867985 41.768524 40.69654 45.42601 C 40.452038 47.041256 39.736664 48.351566 39.0 49.5 Z M 40.0 141.0 C 41.34405 141.0 42.663494 141.0 44.0 141.0 C 44.398487 136.02205 43.434845 129.03276 44.5 125.0 C 46.054447 128.36671 47.984673 131.48021 49.816013 134.69104 C 51.254448 138.06844 53.150154 141.55794 58.0 141.0 C 58.0 133.66089 58.0 126.33531 58.0 119.0 C 57.336094 119.0 56.660435 119.0 56.0 119.0 C 52.25163 121.80324 55.31835 128.66774 53.5 133.0 C 50.7988 127.31729 47.212936 116.56808 40.0 120.0 C 40.0 126.99912 40.0 134.00127 40.0 141.0 Z M 47.0 42.0 C 48.677834 42.0 50.330612 42.0 52.0 42.0 C 51.268364 39.482006 50.228672 36.042927 49.5 34.0 C 47.59522 36.083973 47.01645 39.553898 47.0 42.0 Z M 63.0 220.0 C 63.020443 218.9566 62.892548 217.9678 62.5 217.0 C 60.91352 218.03578 58.663715 217.97696 57.0 218.0 C 57.0 217.012 57.0 215.97925 57.0 215.0 C 59.330044 215.0 61.677265 215.0 64.0 215.0 C 64.0 214.50066 64.0 213.99336 64.0 213.5 C 63.327217 210.54114 59.33933 207.1252 56.017826 210.16698 C 54.749107 211.14954 54.086987 212.12784 53.938797 213.63828 C 53.574253 214.68025 54.313034 216.68156 54.85659 217.65512 C 56.34428 219.48236 58.81435 220.1259 61.66884 219.9992 C 62.10788 220.00006 62.608067 220.00021 63.0 220.0 Z M 61.0 212.5 C 59.907017 211.10883 58.556915 210.84152 57.0 211.0 C 56.906925 212.9084 58.411587 213.2436 59.852917 212.93501 C 60.293858 212.88928 60.68163 212.75339 61.0 212.5 Z " />

<path style="fill:rgb(46.27451%,46.27451%,46.27451%);fill-rule:evenodd;stroke:none;" name="Path No.8" d="M 44.0 125.4375 C 44.342556 125.847824 44.63123 125.73697 45.0 125.5 C 44.680393 125.296585 44.35574 125.06959 44.0 125.4375 Z " />
</g>
</svg>
