<?xml version="1.0" encoding="UTF-8"?>
<svg xmlns="http://www.w3.org/2000/svg" xmlns:xlink="http://www.w3.org/1999/xlink" width="80.0px" height="80.0px" viewBox="0 0 80.0 80.0" version="1.1">

<defs>
<!-- polycosvg ratio="1.000000" offsetx="0.000000" offsety="0.000000" / -->
</defs><g>
<path style="fill:rgb(100.0%,100.0%,100.0%);fill-rule:evenodd;stroke:none;" name="Path No.0" d="M 0.0 80.0 C 26.675621 80.0 53.329712 80.0 80.0 80.0 C 80.0 53.321407 80.0 26.67326 80.0 0.0 C 53.328335 0.0 26.661854 0.0 0.0 0.0 C 0.0 26.668692 0.0 53.341118 0.0 80.0 Z M 29.0 52.5 C 29.030664 53.049606 29.186024 53.557514 29.5 54.0 C 29.999336 54.0 30.50663 54.0 31.0 54.0 C 33.106426 52.44934 33.693417 49.251278 34.0 47.0 C 38.660072 47.0 43.34526 47.0 48.0 47.0 C 48.43402 49.406975 49.559193 51.596703 50.0 54.0 C 51.34405 54.0 52.663494 54.0 54.0 54.0 C 52.136868 44.66631 46.554676 34.5592 45.0 26.0 C 42.669956 26.0 40.322735 26.0 38.0 26.0 C 36.25792 34.05113 32.4938 43.74243 29.0 52.5 Z M 36.0 44.0 C 39.33277 44.0 42.679993 44.0 46.0 44.0 C 46.03871 39.472 43.364708 35.449844 43.0 31.0 C 39.025593 31.011723 38.429867 35.710224 37.335613 38.533264 C 36.698246 40.31031 36.068024 42.093933 36.0 44.0 Z " />

<path style="fill:rgb(0.0%,0.0%,0.0%);fill-rule:evenodd;stroke:none;" name="Path No.1" d="M 28.0 55.0 C 33.33492 55.514305 35.02901 52.24082 35.0 48.0 C 39.00281 48.0 43.01207 48.0 47.0 48.0 C 47.43402 50.406975 48.559193 52.596703 49.0 55.0 C 50.997684 55.0 53.002316 55.0 55.0 55.0 C 54.35215 44.435486 47.440834 35.33102 46.0 25.0 C 43.01005 25.0 39.977646 25.0 37.0 25.0 C 35.990635 35.168404 28.673203 45.677513 28.0 55.0 Z M 37.0 42.5 C 38.989212 43.649574 42.429234 42.486954 45.0 43.0 C 44.01826 39.628426 42.815693 35.89618 41.5 32.0 C 38.991627 34.866722 39.025093 39.60366 37.0 42.5 Z " />
</g>
</svg>
