<?xml version="1.0" encoding="UTF-8"?>
<svg xmlns="http://www.w3.org/2000/svg" xmlns:xlink="http://www.w3.org/1999/xlink" width="80.0px" height="80.0px" viewBox="0 0 80.0 80.0" version="1.1">

<defs>
<!-- polycosvg ratio="1.000000" offsetx="0.000000" offsety="0.000000" / -->
</defs><g>
<path style="fill:rgb(100.0%,100.0%,100.0%);fill-rule:evenodd;stroke:none;" name="Path No.8" d="M 0.0 80.0 C 26.675621 80.0 53.329712 80.0 80.0 80.0 C 80.0 53.321407 80.0 26.67326 80.0 0.0 C 53.328335 0.0 26.661854 0.0 0.0 0.0 C 0.0 26.668692 0.0 53.341118 0.0 80.0 Z M 25.0 54.0 C 26.344051 54.0 27.663496 54.0 29.0 54.0 C 29.0 46.00677 29.0 37.99323 29.0 30.0 C 29.983625 30.0 31.016375 30.0 32.0 30.0 C 32.979794 34.701366 35.194798 39.058876 36.40097 43.70043 C 37.94866 48.14288 38.92103 54.20501 44.0 54.0 C 45.800064 45.762863 49.876865 38.127052 52.0 30.0 C 52.983627 30.0 54.016373 30.0 55.0 30.0 C 55.0 37.99323 55.0 46.00677 55.0 54.0 C 56.34405 54.0 57.663494 54.0 59.0 54.0 C 59.0 48.007835 59.0 41.992165 59.0 36.0 C 58.86734 33.32563 59.234962 29.989359 58.27455 27.66126 C 57.050236 25.594936 52.881676 26.371437 51.0 26.0 C 49.490185 32.859226 44.82392 38.921875 44.0 46.0 C 42.65595 46.0 41.336506 46.0 40.0 46.0 C 39.42021 41.184414 36.80032 36.870525 35.55888 32.23336 C 34.732513 30.21386 33.7467 27.138351 31.628464 26.463854 C 29.062208 26.072412 27.204573 25.997849 25.0 27.0 C 25.0 36.00756 25.0 45.00027 25.0 54.0 Z " />

<path style="fill:rgb(0.0%,2.3529413%,47.843136%);fill-rule:evenodd;stroke:none;" name="Path No.9" d="M 24.0 55.0 C 25.997684 55.0 28.002316 55.0 30.0 55.0 C 30.596464 47.0664 29.23687 38.853603 30.5 31.0 C 32.684998 35.739384 33.928783 40.860737 35.76131 45.73802 C 36.90839 50.37503 38.325737 55.91101 45.0 55.0 C 47.150364 47.0726 50.66138 37.96917 53.5 31.0 C 54.759422 38.900738 53.407246 47.05123 54.0 55.0 C 56.002853 55.0 58.00748 55.0 60.0 55.0 C 60.0 48.39537 60.0 41.80463 60.0 35.2 C 59.67926 32.16634 60.515587 28.005894 58.684635 25.891726 C 56.070522 24.663696 52.534763 25.168602 50.0 25.0 C 48.490185 31.859224 43.82392 37.921875 43.0 45.0 C 42.336094 45.0 41.660435 45.0 41.0 45.0 C 40.31843 39.912075 37.57507 35.29135 36.255157 30.375448 C 34.903576 24.449642 28.36787 24.191391 24.0 26.0 C 24.0 35.680042 24.0 45.334522 24.0 55.0 Z " />
</g>
</svg>
