<?xml version="1.0" encoding="UTF-8"?>
<svg xmlns="http://www.w3.org/2000/svg" xmlns:xlink="http://www.w3.org/1999/xlink" width="80.0px" height="80.0px" viewBox="0 0 80.0 80.0" version="1.1">

<defs>
<!-- polycosvg ratio="1.000000" offsetx="0.000000" offsety="0.000000" / -->
</defs><g>
<path style="fill:rgb(100.0%,100.0%,100.0%);fill-rule:evenodd;stroke:none;" name="Path No.12" d="M 0.0 80.0 C 26.675621 80.0 53.329712 80.0 80.0 80.0 C 80.0 53.321407 80.0 26.67326 80.0 0.0 C 53.328335 0.0 26.661854 0.0 0.0 0.0 C 0.0 26.668692 0.0 53.341118 0.0 80.0 Z M 29.0 54.0 C 30.344051 54.0 31.663496 54.0 33.0 54.0 C 33.0 46.65745 33.0 39.331882 33.0 32.0 C 33.983627 32.0 35.016373 32.0 36.0 32.0 C 36.906445 36.09948 40.38304 40.782696 42.18985 45.375942 C 44.093044 49.198986 46.52789 54.479923 52.0 54.0 C 52.0 44.664623 52.0 35.32471 52.0 26.0 C 51.016373 26.0 49.983627 26.0 49.0 26.0 C 49.0 32.68302 49.0 39.32231 49.0 46.0 C 48.336094 46.0 47.660435 46.0 47.0 46.0 C 44.3574 43.963478 43.0759 39.424618 41.06494 36.161594 C 39.77296 32.801456 36.886147 28.803543 36.0 26.0 C 33.505764 25.801502 31.266485 26.199722 29.0 27.0 C 29.0 36.00756 29.0 45.00027 29.0 54.0 Z " />

<path style="fill:rgb(0.0%,0.0%,0.0%);fill-rule:evenodd;stroke:none;" name="Path No.13" d="M 28.0 55.0 C 29.997684 55.0 32.002316 55.0 34.0 55.0 C 34.569523 47.720642 33.26381 40.20469 34.5 33.0 C 39.132362 41.31919 43.0502 55.88227 53.0 55.0 C 53.0 44.991642 53.0 35.008358 53.0 25.0 C 51.322166 25.0 49.669388 25.0 48.0 25.0 C 47.438644 31.580036 48.72802 38.537296 47.5 45.0 C 43.820984 39.278255 40.65693 32.088703 37.0 25.0 C 33.88632 24.89354 30.899637 25.008156 28.0 26.0 C 28.0 35.680042 28.0 45.334522 28.0 55.0 Z " />
</g>
</svg>
