<?xml version="1.0" encoding="UTF-8"?>
<svg xmlns="http://www.w3.org/2000/svg" xmlns:xlink="http://www.w3.org/1999/xlink" width="80.0px" height="80.0px" viewBox="0 0 80.0 80.0" version="1.1">

<defs>
<!-- polycosvg ratio="1.000000" offsetx="0.000000" offsety="0.000000" / -->
</defs><g>
<path style="fill:rgb(100.0%,100.0%,100.0%);fill-rule:evenodd;stroke:none;" name="Path No.18" d="M 0.0 80.0 C 26.675621 80.0 53.329712 80.0 80.0 80.0 C 80.0 53.321407 80.0 26.67326 80.0 0.0 C 53.328335 0.0 26.661854 0.0 0.0 0.0 C 0.0 26.668692 0.0 53.341118 0.0 80.0 Z M 17.0 54.0 C 18.344051 54.0 19.663496 54.0 21.0 54.0 C 21.0 46.65745 21.0 39.331882 21.0 32.0 C 21.983625 32.0 23.016375 32.0 24.0 32.0 C 24.906445 36.09948 28.38304 40.782696 30.189852 45.375942 C 32.093044 49.198986 34.52789 54.479923 40.0 54.0 C 40.0 44.664623 40.0 35.32471 40.0 26.0 C 39.016373 26.0 37.983627 26.0 37.0 26.0 C 37.0 32.68302 37.0 39.32231 37.0 46.0 C 36.336094 46.0 35.660435 46.0 35.0 46.0 C 32.3574 43.963478 31.075901 39.424618 29.064941 36.161594 C 27.772963 32.801456 24.886148 28.803543 24.0 26.0 C 21.505764 25.801502 19.266485 26.199722 17.0 27.0 C 17.0 36.00756 17.0 45.00027 17.0 54.0 Z M 47.0 50.5 C 47.746735 53.636696 52.9918 53.797157 55.391956 53.85172 C 60.118217 53.793903 66.62787 49.32289 63.639862 42.90503 C 60.70679 38.518177 55.786903 38.10172 52.709255 34.53489 C 51.899063 32.915028 52.15628 30.600298 52.0 29.0 C 55.606495 27.93778 59.4029 27.944263 63.0 29.0 C 62.453407 25.928045 57.732693 25.255995 55.489414 25.63437 C 51.24018 26.163946 47.26089 29.140635 48.465153 34.644894 C 49.689648 38.741806 54.419567 40.386234 57.29586 42.46845 C 60.222466 43.906685 60.497696 50.23709 57.30561 50.695995 C 54.03668 52.304424 49.98568 50.566467 47.0 50.0 C 47.0 50.18 47.0 50.34667 47.0 50.5 Z " />

<path style="fill:rgb(9.411765%,30.588236%,88.62745%);fill-rule:evenodd;stroke:none;" name="Path No.19" d="M 16.0 55.0 C 17.997684 55.0 20.002316 55.0 22.0 55.0 C 22.569523 47.720642 21.263811 40.20469 22.5 33.0 C 27.132362 41.31919 31.050201 55.88227 41.0 55.0 C 41.0 44.991642 41.0 35.008358 41.0 25.0 C 39.322166 25.0 37.669388 25.0 36.0 25.0 C 35.438644 31.580036 36.72802 38.537296 35.5 45.0 C 31.820984 39.278255 28.65693 32.088703 25.0 25.0 C 21.886318 24.89354 18.899637 25.008156 16.0 26.0 C 16.0 35.680042 16.0 45.334522 16.0 55.0 Z M 53.0 30.0 C 57.18795 28.39487 60.333385 29.904774 64.0 31.0 C 64.51189 25.572092 61.00415 23.818268 56.65544 24.333368 C 52.48464 24.581263 47.37062 26.368715 47.187683 32.105576 C 46.616207 37.295277 50.40449 40.076786 54.527817 42.32192 C 57.183475 43.02296 61.264324 47.58778 56.62045 49.553864 C 53.574074 50.6036 49.952923 49.73251 47.5 48.0 C 47.000664 48.0 46.49337 48.0 46.0 48.0 C 45.626526 53.713146 49.685974 55.194695 54.071434 55.259434 C 58.696056 55.904396 65.22731 52.82142 65.64118 46.65923 C 66.16577 40.1187 60.306618 38.16829 56.42876 35.96368 C 53.537296 34.794395 53.087856 32.574 53.0 30.0 Z " />
</g>
</svg>
