<?xml version="1.0" encoding="UTF-8"?>
<svg xmlns="http://www.w3.org/2000/svg" xmlns:xlink="http://www.w3.org/1999/xlink" width="80.0px" height="80.0px" viewBox="0 0 80.0 80.0" version="1.1">

<defs>
<!-- polycosvg ratio="1.000000" offsetx="0.000000" offsety="0.000000" / -->
</defs><g>
<path style="fill:rgb(100.0%,100.0%,100.0%);fill-rule:evenodd;stroke:none;" name="Path No.26" d="M 0.0 80.0 C 26.675621 80.0 53.329712 80.0 80.0 80.0 C 80.0 53.321407 80.0 26.67326 80.0 0.0 C 53.328335 0.0 26.661854 0.0 0.0 0.0 C 0.0 26.668692 0.0 53.341118 0.0 80.0 Z M 28.0 27.75 C 28.990534 30.452227 33.737595 29.683504 35.86243 30.0 C 36.243988 30.0 36.623177 30.0 37.0 30.0 C 37.0 38.336723 37.0 46.673943 37.0 55.0 C 38.34405 55.0 39.663494 55.0 41.0 55.0 C 41.0 46.663277 41.0 38.326057 41.0 30.0 C 43.66587 30.0 46.337166 30.0 49.0 30.0 C 49.0 29.011997 49.0 27.979248 49.0 27.0 C 42.00463 27.0 34.99537 27.0 28.0 27.0 C 28.0 27.255077 28.0 27.498953 28.0 27.75 Z " />

<path style="fill:rgb(100.0%,5.490196%,3.9215689%);fill-rule:evenodd;stroke:none;" name="Path No.27" d="M 36.0 31.0 C 36.0 39.336723 36.0 47.673943 36.0 56.0 C 37.997684 56.0 40.002316 56.0 42.0 56.0 C 42.0 47.663277 42.0 39.326057 42.0 31.0 C 44.66587 31.0 47.337166 31.0 50.0 31.0 C 50.0 29.322165 50.0 27.669388 50.0 26.0 C 42.324757 26.0 34.66991 26.0 27.0 26.0 C 26.798471 30.587011 29.873438 31.348951 33.285873 30.984476 C 34.19727 31.005444 35.096035 30.998348 36.0 31.0 Z " />
</g>
</svg>
