<?xml version="1.0" encoding="UTF-8"?>
<svg xmlns="http://www.w3.org/2000/svg" xmlns:xlink="http://www.w3.org/1999/xlink" width="80.0px" height="80.0px" viewBox="0 0 80.0 80.0" version="1.1">

<defs>
<!-- polycosvg ratio="1.000000" offsetx="0.000000" offsety="0.000000" / -->
</defs><g>
<path style="fill:rgb(100.0%,100.0%,100.0%);fill-rule:evenodd;stroke:none;" name="Path No.28" d="M 25.0 32.0 C 25.0 40.336723 25.0 48.673943 25.0 57.0 C 27.66587 57.0 30.337166 57.0 33.0 57.0 C 33.0 48.663277 33.0 40.326057 33.0 32.0 C 35.66587 32.0 38.337166 32.0 41.0 32.0 C 41.0 29.669958 41.0 27.322735 41.0 25.0 C 32.661873 25.0 24.32746 25.0 16.0 25.0 C 16.09854 26.916828 16.058163 30.060434 17.432693 31.170603 C 19.200983 31.971703 21.585764 31.845055 23.31687 31.998768 C 23.880363 32.000286 24.444017 32.000126 25.0 32.0 Z M 65.0 48.0 C 61.465435 47.98478 57.99957 50.41619 54.435417 49.20605 C 48.605686 47.65125 48.973698 39.418106 51.01165 35.49973 C 54.545326 29.406137 59.86003 33.862328 65.0 34.0 C 64.93049 31.575825 65.22211 28.075993 63.054684 26.261782 C 61.58259 24.331299 57.63105 24.649504 55.005714 24.210342 C 47.758972 23.832285 43.210606 28.385103 41.394638 34.45149 C 40.72481 41.385494 39.925 49.890167 45.560123 54.5121 C 50.89137 58.846687 66.833084 58.78071 65.0 48.0 Z " />

<path style="fill:rgb(0.0%,0.0%,0.0%);fill-rule:evenodd;stroke:none;" name="Path No.29" d="M 0.0 80.0 C 26.675621 80.0 53.329712 80.0 80.0 80.0 C 80.0 53.321407 80.0 26.67326 80.0 0.0 C 53.328335 0.0 26.661854 0.0 0.0 0.0 C 0.0 26.668692 0.0 53.341118 0.0 80.0 Z M 26.0 31.0 C 26.0 39.336723 26.0 47.673943 26.0 56.0 C 27.997684 56.0 30.002316 56.0 32.0 56.0 C 32.0 47.663277 32.0 39.326057 32.0 31.0 C 34.66587 31.0 37.337166 31.0 40.0 31.0 C 40.0 29.322165 40.0 27.669388 40.0 26.0 C 32.324757 26.0 24.669912 26.0 17.0 26.0 C 16.798471 30.587011 19.873438 31.348951 23.285873 30.984476 C 24.19727 31.005444 25.096035 30.998348 26.0 31.0 Z M 64.0 49.0 C 60.49681 49.7087 57.265778 52.10685 52.9747 50.06942 C 47.364388 47.829037 47.584496 38.669735 50.008087 34.520737 C 53.581944 27.905447 59.64391 31.804451 64.0 33.0 C 64.541626 27.298 60.600132 25.51415 55.794872 25.344856 C 50.02106 24.793491 44.55205 28.503534 42.95668 34.067596 C 40.882355 40.038513 41.700417 49.09108 46.168453 53.17522 C 51.743793 57.879845 64.675964 57.06852 64.0 49.0 Z " />
</g>
</svg>
