<?xml version="1.0" encoding="UTF-8"?>
<svg xmlns="http://www.w3.org/2000/svg" xmlns:xlink="http://www.w3.org/1999/xlink" width="80.0px" height="80.0px" viewBox="0 0 80.0 80.0" version="1.1">

<defs>
<!-- polycosvg ratio="1.000000" offsetx="0.000000" offsety="0.000000" / -->
</defs><g>
<path style="fill:rgb(100.0%,100.0%,100.0%);fill-rule:evenodd;stroke:none;" name="Path No.2" d="M 0.0 80.0 C 26.675621 80.0 53.329712 80.0 80.0 80.0 C 80.0 53.321407 80.0 26.67326 80.0 0.0 C 53.328335 0.0 26.661854 0.0 0.0 0.0 C 0.0 26.668692 0.0 53.341118 0.0 80.0 Z M 47.0 40.0 C 47.483086 36.432125 51.261757 33.51404 48.690094 29.085798 C 46.26975 25.35731 40.216187 26.066011 36.52563 26.078236 C 35.10836 25.824862 33.43853 26.374332 32.0 27.0 C 32.433613 35.13105 31.333536 44.96238 32.69855 52.294132 C 38.139362 57.061253 50.996227 52.92943 51.501484 46.278824 C 51.515472 43.50652 49.74339 40.665142 47.0 40.0 Z M 36.0 38.0 C 39.20949 38.204277 42.368313 37.982708 45.325375 36.75 C 46.398167 34.680164 46.134018 30.82315 44.249138 29.410408 C 41.75461 27.600689 38.745598 27.930416 36.403877 29.391003 C 36.07424 32.23599 35.79113 35.107082 36.0 38.0 Z M 36.0 51.0 C 39.53097 50.779774 44.153038 51.70359 46.52386 49.46218 C 48.910892 47.207623 47.8829 42.5394 44.950054 41.472862 C 42.012863 40.768265 38.98081 41.074116 36.0 41.0 C 36.0 44.335205 36.0 47.672813 36.0 51.0 Z " />

<path style="fill:rgb(100.0%,10.588236%,5.882353%);fill-rule:evenodd;stroke:none;" name="Path No.3" d="M 48.0 38.5 C 51.879627 35.435406 51.622757 27.28046 47.017456 25.945187 C 42.997536 24.744987 36.857788 24.77558 32.399647 25.515146 C 31.989273 25.776802 31.42094 25.901344 31.0 26.0 C 31.560112 34.767826 30.199219 45.437122 31.72201 53.34917 C 37.73991 57.81618 51.713417 54.574745 52.591167 47.155064 C 53.29186 43.10504 51.08123 40.448986 48.0 38.5 Z M 37.0 37.0 C 39.19998 36.937756 42.03107 37.06411 43.80374 35.92007 C 46.01442 35.2876 44.410267 31.187857 43.29184 30.487732 C 41.767708 29.438993 38.987865 28.99679 37.86992 30.224594 C 36.319042 31.816694 37.390984 34.9086 37.0 37.0 Z M 37.0 50.0 C 39.752644 49.886066 43.32007 50.463734 45.281048 48.83334 C 47.642765 46.97134 46.75982 43.80971 44.403008 42.56148 C 42.02997 41.771088 39.445683 42.04175 37.0 42.0 C 37.0 44.661026 37.0 47.339054 37.0 50.0 Z " />
</g>
</svg>
