<?xml version="1.0" encoding="UTF-8"?>
<svg xmlns="http://www.w3.org/2000/svg" xmlns:xlink="http://www.w3.org/1999/xlink" width="80.0px" height="80.0px" viewBox="0 0 80.0 80.0" version="1.1">

<defs>
<!-- polycosvg ratio="1.000000" offsetx="0.000000" offsety="0.000000" / -->
</defs><g>
<path style="fill:rgb(2.745098%,49.80392%,76.86275%);fill-rule:evenodd;stroke:none;" name="Path No.4" d="M 0.0 80.0 C 26.675621 80.0 53.329712 80.0 80.0 80.0 C 80.0 53.321407 80.0 26.67326 80.0 0.0 C 53.328335 0.0 26.661854 0.0 0.0 0.0 C 0.0 26.668692 0.0 53.341118 0.0 80.0 Z M 29.0 27.0 C 29.311384 35.012386 28.527088 44.55819 29.484581 51.85547 C 31.132051 55.35233 38.01313 53.33359 40.69428 53.47732 C 44.359352 52.99566 48.005005 51.176056 49.866 47.83972 C 53.769684 41.73902 52.973145 29.921814 43.84458 26.902668 C 39.251286 25.56745 32.66026 25.843119 29.0 27.0 Z M 34.0 51.0 C 37.980137 50.893974 42.773388 51.49273 45.475212 48.332813 C 47.842922 45.034546 48.28196 40.834427 47.83546 36.898987 C 47.15874 28.753262 39.381664 27.757746 34.0 29.0 C 34.0 36.34574 34.0 43.65477 34.0 51.0 Z " />

<path style="fill:rgb(100.0%,100.0%,100.0%);fill-rule:evenodd;stroke:none;" name="Path No.5" d="M 28.0 26.0 C 28.374569 34.67259 27.461834 44.96595 28.490788 52.868217 C 30.36852 56.519608 37.854378 54.219223 40.775898 54.625393 C 44.74957 54.230553 48.83388 52.47879 50.86477 48.841385 C 54.603886 42.014545 54.3432 29.02517 44.84524 25.902807 C 39.66993 24.658707 32.13812 24.715689 28.0 26.0 Z M 35.0 50.0 C 38.211666 50.059734 42.329422 49.920418 44.2106 47.584724 C 46.44791 44.991688 47.166607 41.37993 46.834484 38.040646 C 46.380573 30.869654 40.719788 29.26395 35.0 30.0 C 35.0 36.67369 35.0 43.332203 35.0 50.0 Z " />
</g>
</svg>
