<?xml version="1.0" encoding="UTF-8"?>
<svg xmlns="http://www.w3.org/2000/svg" xmlns:xlink="http://www.w3.org/1999/xlink" width="80.0px" height="80.0px" viewBox="0 0 80.0 80.0" version="1.1">

<defs>
<!-- polycosvg ratio="1.000000" offsetx="0.000000" offsety="0.000000" / -->
</defs><g>
<path style="fill:rgb(100.0%,100.0%,100.0%);fill-rule:evenodd;stroke:none;" name="Path No.0" d="M 0.0 80.0 C 26.675621 80.0 53.329712 80.0 80.0 80.0 C 80.0 53.321407 80.0 26.67326 80.0 0.0 C 53.328335 0.0 26.661854 0.0 0.0 0.0 C 0.0 26.668692 0.0 53.341118 0.0 80.0 Z M 33.0 53.0 C 34.34405 53.0 35.663494 53.0 37.0 53.0 C 36.898743 48.975433 37.24293 44.942635 38.0 41.0 C 41.402744 40.904316 47.020874 41.535343 48.0 38.0 C 44.673595 38.0 41.326374 38.0 38.0 38.0 C 38.0 34.673595 38.0 31.326372 38.0 28.0 C 41.51488 27.934696 46.57312 28.367504 49.0 26.5 C 48.354248 25.76939 48.040688 24.965483 48.0 24.0 C 42.93709 23.7987 37.93436 23.918518 33.0 25.0 C 33.0 34.336063 33.0 43.66396 33.0 53.0 Z " />

<path style="fill:rgb(2.745098%,28.627453%,100.0%);fill-rule:evenodd;stroke:none;" name="Path No.1" d="M 32.0 54.0 C 34.002853 54.0 36.00748 54.0 38.0 54.0 C 37.898743 49.975433 38.24293 45.942635 39.0 42.0 C 42.8626 41.91891 49.049706 42.900387 49.0 37.0 C 45.673595 37.0 42.326374 37.0 39.0 37.0 C 39.0979 34.243275 38.798813 30.797527 40.0 28.5 C 37.61509 28.022594 34.568382 27.722853 32.0 27.0 C 32.0 36.00682 32.0 44.996418 32.0 54.0 Z " />

<path style="fill:rgb(4.7058825%,100.0%,17.647058%);fill-rule:evenodd;stroke:none;" name="Path No.2" d="M 32.0 24.0 C 31.693846 28.235353 34.43625 29.304539 37.68203 28.983158 C 41.218285 28.980392 44.927677 29.264065 48.339283 28.2803 C 51.35364 25.520752 47.90167 22.508451 45.296722 23.052395 C 40.79858 22.659391 36.372147 23.06022 32.0 24.0 Z " />

<path style="fill:rgb(39.607845%,86.666664%,63.137257%);fill-rule:evenodd;stroke:none;" name="Path No.3" d="M 34.0 23.3125 C 38.562126 24.889969 43.21534 22.865713 48.0 23.5 C 43.355812 23.677252 38.587456 22.69815 34.0 23.3125 Z " />

<path style="fill:rgb(14.901961%,80.39216%,49.019608%);fill-rule:evenodd;stroke:none;" name="Path No.4" d="M 32.5 28.0 C 32.747932 26.782272 33.658474 24.305563 32.0 24.0 C 31.927757 25.37675 32.103485 26.694757 32.5 28.0 Z " />
</g>
</svg>
