<?xml version="1.0" encoding="UTF-8"?>
<svg xmlns="http://www.w3.org/2000/svg" xmlns:xlink="http://www.w3.org/1999/xlink" width="80.0px" height="80.0px" viewBox="0 0 80.0 80.0" version="1.1">

<defs>
<!-- polycosvg ratio="1.000000" offsetx="0.000000" offsety="0.000000" / -->
</defs><g>
<path style="fill:rgb(100.0%,100.0%,100.0%);fill-rule:evenodd;stroke:none;" name="Path No.6" d="M 0.0 80.0 C 26.675621 80.0 53.329712 80.0 80.0 80.0 C 80.0 53.321407 80.0 26.67326 80.0 0.0 C 53.328335 0.0 26.661854 0.0 0.0 0.0 C 0.0 26.668692 0.0 53.341118 0.0 80.0 Z M 29.0 54.0 C 30.344051 54.0 31.663496 54.0 33.0 54.0 C 32.882027 49.637775 33.156517 45.28119 34.0 41.0 C 38.338665 41.0 42.672 41.0 47.0 41.0 C 47.0 45.338665 47.0 49.672 47.0 54.0 C 48.34405 54.0 49.663494 54.0 51.0 54.0 C 51.0 44.664623 51.0 35.32471 51.0 26.0 C 49.65595 26.0 48.336506 26.0 47.0 26.0 C 46.56943 29.579863 47.76714 34.543747 45.684795 37.108112 C 42.017582 38.599487 37.82082 37.670692 34.0 38.0 C 34.101257 33.975433 33.75707 29.942635 33.0 26.0 C 31.655949 26.0 30.336504 26.0 29.0 26.0 C 29.0 35.333286 29.0 44.6724 29.0 54.0 Z " />

<path style="fill:rgb(0.0%,3.529412%,75.68628%);fill-rule:evenodd;stroke:none;" name="Path No.7" d="M 28.0 55.0 C 29.997684 55.0 32.002316 55.0 34.0 55.0 C 33.882027 50.637775 34.156517 46.28119 35.0 42.0 C 38.657555 42.0 42.34274 42.0 46.0 42.0 C 46.0 46.338665 46.0 50.672 46.0 55.0 C 47.997684 55.0 50.002316 55.0 52.0 55.0 C 52.0 44.991642 52.0 35.008358 52.0 25.0 C 50.002316 25.0 47.997684 25.0 46.0 25.0 C 45.663647 28.544266 46.583256 33.015533 45.030724 35.7639 C 42.440815 37.72648 37.928066 36.560566 35.0 37.0 C 35.101257 32.975433 34.75707 28.942635 34.0 25.0 C 31.997149 25.0 29.992517 25.0 28.0 25.0 C 28.0 34.9953 28.0 45.012386 28.0 55.0 Z " />
</g>
</svg>
