<?xml version="1.0" encoding="UTF-8"?>
<svg xmlns="http://www.w3.org/2000/svg" xmlns:xlink="http://www.w3.org/1999/xlink" width="80.0px" height="80.0px" viewBox="0 0 80.0 80.0" version="1.1">

<defs>
<!-- polycosvg ratio="1.000000" offsetx="0.000000" offsety="0.000000" / -->
</defs><g>
<path style="fill:rgb(100.0%,100.0%,100.0%);fill-rule:evenodd;stroke:none;" name="Path No.10" d="M 0.0 80.0 C 26.675621 80.0 53.329712 80.0 80.0 80.0 C 80.0 53.321407 80.0 26.67326 80.0 0.0 C 53.328335 0.0 26.661854 0.0 0.0 0.0 C 0.0 26.668692 0.0 53.341118 0.0 80.0 Z M 21.0 49.0 C 21.663908 49.0 22.339565 49.0 23.0 49.0 C 23.047699 44.80303 22.41986 39.414692 25.0 36.5 C 23.820036 35.770393 22.241558 35.21923 21.0 35.0 C 21.0 39.672607 21.0 44.340866 21.0 49.0 Z M 27.0 35.25 C 32.36871 37.551613 30.89799 44.216377 31.0 49.0 C 31.663908 49.0 32.339565 49.0 33.0 49.0 C 33.33255 45.199894 32.359943 40.449997 34.0 37.5 C 31.817831 36.437202 29.448503 34.43445 27.0 35.25 Z M 36.0 35.25 C 42.563778 36.95334 40.910065 43.602734 41.0 49.0 C 41.663906 49.0 42.339565 49.0 43.0 49.0 C 42.869957 45.57998 43.27993 41.461163 42.550343 38.388573 C 42.333935 35.555782 37.783173 34.083263 36.0 35.25 Z M 60.0 48.5 C 55.770363 48.62565 50.364265 48.195892 51.0 42.0 C 54.326405 42.0 57.673626 42.0 61.0 42.0 C 61.06465 39.156788 59.507053 35.24082 57.0 35.5 C 58.48784 36.992157 59.0666 38.925762 59.0 41.0 C 56.33413 41.0 53.662834 41.0 51.0 41.0 C 50.9979 39.6518 50.831413 38.3017 50.5 37.0 C 50.243294 37.858337 50.03296 38.635006 49.0 39.0 C 48.094563 46.640343 52.37241 49.76816 58.633404 48.59344 C 59.106068 48.561123 59.54079 48.5314 60.0 48.5 Z M 51.0 36.453125 C 51.428185 36.85502 52.02984 36.387997 52.446613 36.16023 C 52.94717 35.88358 53.464527 35.66812 54.0 35.5 C 52.905533 34.991337 51.491795 35.32292 51.0 36.453125 Z " />

<path style="fill:rgb(0.0%,0.0%,0.0%);fill-rule:evenodd;stroke:none;" name="Path No.11" d="M 20.0 50.0 C 21.344051 50.0 22.663496 50.0 24.0 50.0 C 24.312078 45.585083 23.008024 38.409534 28.0 37.0 C 31.306381 39.609367 29.270052 46.579044 30.0 50.0 C 31.344051 50.0 32.663494 50.0 34.0 50.0 C 33.95567 45.69577 33.008453 36.532856 39.0 37.5 C 40.736748 40.69804 39.536327 45.882355 40.0 50.0 C 41.34405 50.0 42.663494 50.0 44.0 50.0 C 43.640404 45.948395 44.671474 40.749416 43.06437 36.24257 C 40.394894 32.439884 36.278217 32.896664 33.5 36.0 C 32.086372 34.74584 29.74237 33.105194 27.681305 33.93368 C 25.371836 34.400127 22.931927 34.299015 20.0 34.0 C 20.0 39.34325 20.0 44.658066 20.0 50.0 Z M 62.0 47.5 C 61.488243 46.988243 61.00714 46.50714 60.5 46.0 C 57.99678 47.642704 53.469326 46.79263 52.0 45.0 C 52.0 44.336094 52.0 43.660435 52.0 43.0 C 55.326405 43.0 58.673626 43.0 62.0 43.0 C 62.1311 40.347527 61.661926 37.69983 60.50803 35.327297 C 58.097908 34.73898 55.7318 32.827957 52.81794 34.222767 C 48.594444 35.029858 47.880817 40.468613 48.175556 43.66033 C 48.426296 48.19849 52.059273 50.133507 55.966805 49.924538 C 58.048748 49.84981 60.993526 49.996883 62.0 47.5 Z M 58.0 40.0 C 57.88414 38.329933 56.639652 37.087704 55.5 36.0 C 54.505432 36.792866 53.244686 37.21006 52.45609 38.249294 C 51.90588 39.836895 54.251 40.029785 55.19976 40.0 C 56.139656 40.0 57.067036 40.0 58.0 40.0 Z " />
</g>
</svg>
