<?xml version="1.0" encoding="UTF-8"?>
<svg xmlns="http://www.w3.org/2000/svg" xmlns:xlink="http://www.w3.org/1999/xlink" width="80.0px" height="80.0px" viewBox="0 0 80.0 80.0" version="1.1">

<defs>
<!-- polycosvg ratio="1.000000" offsetx="0.000000" offsety="0.000000" / -->
</defs><g>
<path style="fill:rgb(16.078432%,73.725494%,20.784313%);fill-rule:evenodd;stroke:none;" name="Path No.14" d="M 0.0 80.0 C 26.675621 80.0 53.329712 80.0 80.0 80.0 C 80.0 53.321407 80.0 26.67326 80.0 0.0 C 53.328335 0.0 26.661854 0.0 0.0 0.0 C 0.0 26.668692 0.0 53.341118 0.0 80.0 Z M 16.0 54.0 C 17.344051 54.0 18.663496 54.0 20.0 54.0 C 20.0 46.65745 20.0 39.331882 20.0 32.0 C 20.983625 32.0 22.016375 32.0 23.0 32.0 C 23.906445 36.09948 27.38304 40.782696 29.189852 45.375942 C 31.093044 49.198986 33.52789 54.479923 39.0 54.0 C 39.0 44.664623 39.0 35.32471 39.0 26.0 C 38.016373 26.0 36.983627 26.0 36.0 26.0 C 36.0 32.68302 36.0 39.32231 36.0 46.0 C 35.336094 46.0 34.660435 46.0 34.0 46.0 C 31.357399 43.963478 30.075901 39.424618 28.064941 36.161594 C 26.772963 32.801456 23.886148 28.803543 23.0 26.0 C 20.505764 25.801502 18.266485 26.199722 16.0 27.0 C 16.0 36.00756 16.0 45.00027 16.0 54.0 Z M 67.0 50.0 C 63.271908 50.43025 57.562138 52.11928 54.83178 49.73406 C 50.016834 46.49263 50.704334 37.36898 52.311577 33.23233 C 55.480278 26.734112 61.525826 28.505693 67.0 30.0 C 66.28558 26.45916 60.572094 25.341898 57.992256 25.592697 C 52.30135 26.255669 47.519176 31.324535 47.11968 36.994186 C 46.739697 42.958878 47.236626 51.761383 55.883484 53.665466 C 59.645878 54.341724 66.091064 53.969006 67.0 50.0 Z " />

<path style="fill:rgb(100.0%,100.0%,100.0%);fill-rule:evenodd;stroke:none;" name="Path No.15" d="M 15.0 55.0 C 16.997684 55.0 19.002316 55.0 21.0 55.0 C 21.569523 47.720642 20.263811 40.20469 21.5 33.0 C 26.132362 41.31919 30.050201 55.88227 40.0 55.0 C 40.0 44.991642 40.0 35.008358 40.0 25.0 C 38.322166 25.0 36.669388 25.0 35.0 25.0 C 34.438644 31.580036 35.72802 38.537296 34.5 45.0 C 30.820984 39.278255 27.65693 32.088703 24.0 25.0 C 20.886318 24.89354 17.899637 25.008156 15.0 26.0 C 15.0 35.680042 15.0 45.334522 15.0 55.0 Z M 68.0 48.0 C 64.38183 48.850445 60.686474 51.124844 56.32809 49.160076 C 51.367195 46.139126 51.525215 38.3016 53.43574 33.649223 C 57.96135 27.21253 62.95491 30.24366 68.0 32.0 C 68.38558 26.752686 64.1026 24.378395 59.558277 24.350742 C 53.90289 23.883917 48.445667 27.67581 46.798683 33.08959 C 45.01818 39.575996 45.223587 47.482925 50.08781 52.276775 C 55.444424 57.578136 68.96815 55.337967 68.0 48.0 Z " />
</g>
</svg>
