<?xml version="1.0" encoding="UTF-8"?>
<svg xmlns="http://www.w3.org/2000/svg" xmlns:xlink="http://www.w3.org/1999/xlink" width="80.0px" height="80.0px" viewBox="0 0 80.0 80.0" version="1.1">

<defs>
<!-- polycosvg ratio="1.000000" offsetx="0.000000" offsety="0.000000" / -->
</defs><g>
<path style="fill:rgb(100.0%,100.0%,100.0%);fill-rule:evenodd;stroke:none;" name="Path No.16" d="M 0.0 80.0 C 26.675621 80.0 53.329712 80.0 80.0 80.0 C 80.0 53.321407 80.0 26.67326 80.0 0.0 C 53.328335 0.0 26.661854 0.0 0.0 0.0 C 0.0 26.668692 0.0 53.341118 0.0 80.0 Z M 17.0 53.0 C 18.344051 53.0 19.663496 53.0 21.0 53.0 C 21.0 45.65745 21.0 38.331882 21.0 31.0 C 21.983625 31.0 23.016375 31.0 24.0 31.0 C 24.906445 35.09948 28.38304 39.782696 30.189852 44.375942 C 32.093044 48.198986 34.52789 53.479923 40.0 53.0 C 40.0 43.664623 40.0 34.32471 40.0 25.0 C 39.016373 25.0 37.983627 25.0 37.0 25.0 C 37.0 31.683022 37.0 38.32231 37.0 45.0 C 36.336094 45.0 35.660435 45.0 35.0 45.0 C 32.3574 42.963478 31.075901 38.424618 29.064941 35.161594 C 27.772963 31.801456 24.886148 27.803543 24.0 25.0 C 21.505764 24.801502 19.266485 25.199722 17.0 26.0 C 17.0 35.00756 17.0 44.00027 17.0 53.0 Z M 49.0 53.0 C 54.338665 53.0 59.672 53.0 65.0 53.0 C 65.0 52.011997 65.0 50.979248 65.0 50.0 C 60.99719 50.0 56.98793 50.0 53.0 50.0 C 53.0 46.673595 53.0 43.326374 53.0 40.0 C 56.326405 40.0 59.673626 40.0 63.0 40.0 C 63.0 39.016373 63.0 37.983627 63.0 37.0 C 59.673595 37.0 56.326374 37.0 53.0 37.0 C 53.0 34.01005 53.0 30.977646 53.0 28.0 C 57.024567 28.101257 61.057365 27.757067 65.0 27.0 C 65.0 26.336092 65.0 25.660435 65.0 25.0 C 59.662415 25.0 54.330647 25.0 49.0 25.0 C 49.0 34.32799 49.0 43.67787 49.0 53.0 Z " />

<path style="fill:rgb(0.0%,7.4509807%,49.80392%);fill-rule:evenodd;stroke:none;" name="Path No.17" d="M 16.0 54.0 C 17.997684 54.0 20.002316 54.0 22.0 54.0 C 22.569523 46.720642 21.263811 39.20469 22.5 32.0 C 27.132362 40.31919 31.050201 54.88227 41.0 54.0 C 41.0 43.991642 41.0 34.008358 41.0 24.0 C 39.322166 24.0 37.669388 24.0 36.0 24.0 C 35.438644 30.580036 36.72802 37.537296 35.5 44.0 C 31.820984 38.278255 28.65693 31.088705 25.0 24.0 C 21.886318 23.89354 18.899637 24.008156 16.0 25.0 C 16.0 34.680042 16.0 44.334522 16.0 54.0 Z M 48.0 54.0 C 53.99537 54.0 60.00463 54.0 66.0 54.0 C 66.0 52.322166 66.0 50.669388 66.0 49.0 C 61.99719 49.0 57.98793 49.0 54.0 49.0 C 54.0 46.33413 54.0 43.662834 54.0 41.0 C 57.326405 41.0 60.673626 41.0 64.0 41.0 C 64.0 39.322166 64.0 37.669388 64.0 36.0 C 60.673595 36.0 57.326374 36.0 54.0 36.0 C 54.0 33.669956 54.0 31.322735 54.0 29.0 C 58.024567 29.101257 62.057365 28.757067 66.0 28.0 C 66.0 26.655949 66.0 25.336504 66.0 24.0 C 59.997574 24.0 53.98903 24.0 48.0 24.0 C 48.0 34.008358 48.0 43.991642 48.0 54.0 Z " />
</g>
</svg>
