<?xml version="1.0" encoding="UTF-8"?>
<svg xmlns="http://www.w3.org/2000/svg" xmlns:xlink="http://www.w3.org/1999/xlink" width="80.0px" height="80.0px" viewBox="0 0 80.0 80.0" version="1.1">

<defs>
<!-- polycosvg ratio="1.000000" offsetx="0.000000" offsety="0.000000" / -->
</defs><g>
<path style="fill:rgb(100.0%,100.0%,100.0%);fill-rule:evenodd;stroke:none;" name="Path No.20" d="M 0.0 80.0 C 26.675621 80.0 53.329712 80.0 80.0 80.0 C 80.0 53.321407 80.0 26.67326 80.0 0.0 C 53.328335 0.0 26.661854 0.0 0.0 0.0 C 0.0 26.668692 0.0 53.341118 0.0 80.0 Z M 32.0 53.0 C 33.34405 53.0 34.663494 53.0 36.0 53.0 C 36.01939 49.025867 35.576595 43.209587 40.759197 42.299442 C 46.070717 41.81272 53.711555 36.59593 49.676037 29.728004 C 46.51162 24.15923 36.55047 24.220217 32.0 26.0 C 32.0 35.00756 32.0 44.00027 32.0 53.0 Z M 37.0 40.0 C 42.08552 40.832943 49.181503 37.555595 45.990944 30.54822 C 44.543232 27.402508 39.90881 27.011604 37.0 27.0 C 37.0 31.345339 37.0 35.660355 37.0 40.0 Z " />

<path style="fill:rgb(9.411765%,30.588236%,88.62745%);fill-rule:evenodd;stroke:none;" name="Path No.21" d="M 31.0 54.0 C 33.002853 54.0 35.00748 54.0 37.0 54.0 C 37.069427 49.434967 36.569427 43.666233 42.703327 43.071323 C 48.703228 42.43888 55.508118 35.015423 50.384552 28.26296 C 46.54271 22.98393 35.845005 23.381025 31.0 25.0 C 31.0 34.680042 31.0 44.334522 31.0 54.0 Z M 38.0 39.0 C 41.672405 39.322292 47.265022 36.4224 44.914616 31.353464 C 43.859028 28.938267 40.051735 28.138294 38.0 28.0 C 38.0 31.659967 38.0 35.34435 38.0 39.0 Z " />
</g>
</svg>
