<?xml version="1.0" encoding="UTF-8"?>
<svg xmlns="http://www.w3.org/2000/svg" xmlns:xlink="http://www.w3.org/1999/xlink" width="80.0px" height="80.0px" viewBox="0 0 80.0 80.0" version="1.1">

<defs>
<!-- polycosvg ratio="1.000000" offsetx="0.000000" offsety="0.000000" / -->
</defs><g>
<path style="fill:rgb(100.0%,100.0%,100.0%);fill-rule:evenodd;stroke:none;" name="Path No.0" d="M 0.0 80.0 C 26.675621 80.0 53.329712 80.0 80.0 80.0 C 80.0 53.321407 80.0 26.67326 80.0 0.0 C 53.328335 0.0 26.661854 0.0 0.0 0.0 C 0.0 26.668692 0.0 53.341118 0.0 80.0 Z M 20.0 53.0 C 21.344051 53.0 22.663496 53.0 24.0 53.0 C 24.019392 49.025867 23.576593 43.209587 28.759195 42.299442 C 34.070717 41.81272 41.711555 36.59593 37.676037 29.728004 C 34.51162 24.15923 24.550467 24.220217 20.0 26.0 C 20.0 35.00756 20.0 44.00027 20.0 53.0 Z M 25.0 40.0 C 30.08552 40.832943 37.181503 37.555595 33.990944 30.54822 C 32.543232 27.402508 27.908808 27.011604 25.0 27.0 C 25.0 31.345339 25.0 35.660355 25.0 40.0 Z M 46.0 53.0 C 50.660072 53.0 55.34526 53.0 60.0 53.0 C 60.0 52.011997 60.0 50.979248 60.0 50.0 C 56.673595 50.0 53.326374 50.0 50.0 50.0 C 50.0 41.663277 50.0 33.326057 50.0 25.0 C 48.65595 25.0 47.336506 25.0 46.0 25.0 C 46.0 34.333286 46.0 43.6724 46.0 53.0 Z " />

<path style="fill:rgb(0.0%,0.0%,0.0%);fill-rule:evenodd;stroke:none;" name="Path No.1" d="M 19.0 54.0 C 20.997684 54.0 23.002316 54.0 25.0 54.0 C 25.06943 49.434967 24.569426 43.666233 30.703325 43.071323 C 36.703228 42.43888 43.508118 35.015423 38.384552 28.26296 C 34.54271 22.98393 23.845007 23.381025 19.0 25.0 C 19.0 34.680042 19.0 44.334522 19.0 54.0 Z M 26.0 39.0 C 29.672405 39.322292 35.265022 36.4224 32.914616 31.353464 C 31.859028 28.938267 28.051735 28.138294 26.0 28.0 C 26.0 31.659967 26.0 35.34435 26.0 39.0 Z M 45.0 54.0 C 50.338665 54.0 55.672 54.0 61.0 54.0 C 61.0 52.322166 61.0 50.669388 61.0 49.0 C 57.673595 49.0 54.326374 49.0 51.0 49.0 C 51.0 40.663277 51.0 32.326057 51.0 24.0 C 48.997147 24.0 46.99252 24.0 45.0 24.0 C 45.0 33.9953 45.0 44.012386 45.0 54.0 Z " />
</g>
</svg>
