<?xml version="1.0" encoding="UTF-8"?>
<svg xmlns="http://www.w3.org/2000/svg" xmlns:xlink="http://www.w3.org/1999/xlink" width="80.0px" height="80.0px" viewBox="0 0 80.0 80.0" version="1.1">

<defs>
<!-- polycosvg ratio="1.000000" offsetx="0.000000" offsety="0.000000" / -->
</defs><g>
<path style="fill:rgb(100.0%,100.0%,100.0%);fill-rule:evenodd;stroke:none;" name="Path No.22" d="M 0.0 80.0 C 26.675621 80.0 53.329712 80.0 80.0 80.0 C 80.0 53.321407 80.0 26.67326 80.0 0.0 C 53.328335 0.0 26.661854 0.0 0.0 0.0 C 0.0 26.668692 0.0 53.341118 0.0 80.0 Z M 32.5 50.0 C 32.115887 50.971863 31.989391 51.963234 32.0 53.0 C 35.897312 53.926926 40.266567 54.485523 44.055984 52.779747 C 46.366 52.168278 47.16433 51.286427 47.948017 49.115803 C 48.74447 47.610252 48.946434 44.22029 47.951817 43.093826 C 45.46486 38.439255 37.132008 37.11274 36.659645 32.63519 C 35.349743 27.03978 44.38257 28.099176 47.0 29.0 C 46.505547 26.078754 42.090073 25.320292 39.90573 25.597971 C 35.719845 25.94767 31.595041 30.376556 32.669254 34.217762 C 33.69833 38.231934 37.68054 40.05489 41.069225 41.741455 C 44.42596 43.170902 46.250385 47.433247 43.085243 49.710308 C 40.91666 51.95073 34.9175 50.618027 32.5 50.0 Z " />

<path style="fill:rgb(11.764706%,20.784313%,73.725494%);fill-rule:evenodd;stroke:none;" name="Path No.23" d="M 37.0 31.25 C 39.79637 28.75366 44.985764 29.06585 47.5 31.0 C 47.870358 30.157639 48.29408 29.312113 49.0 28.5 C 45.657288 23.434057 37.612858 22.84305 33.47777 27.398808 C 29.63095 31.140547 31.157015 37.908245 35.599632 40.266724 C 38.20129 42.236416 45.004765 43.956738 43.049225 47.797916 C 40.35357 51.009525 33.940384 49.87354 31.5 48.0 C 31.031631 49.448963 30.044968 51.371437 31.041471 52.082718 C 31.498116 53.751904 32.57093 54.316753 34.27406 54.593338 C 37.963577 55.727333 42.04167 55.44007 45.5025 53.562313 C 47.499195 52.61718 49.377335 50.239697 49.601433 48.19345 C 50.36453 45.446846 49.377125 41.982243 47.724365 40.48367 C 44.751984 36.930195 38.694073 36.078552 37.250587 32.05734 C 37.167057 31.788225 37.08353 31.519112 37.0 31.25 Z " />
</g>
</svg>
