<?xml version="1.0" encoding="UTF-8"?>
<svg xmlns="http://www.w3.org/2000/svg" xmlns:xlink="http://www.w3.org/1999/xlink" width="80.0px" height="80.0px" viewBox="0 0 80.0 80.0" version="1.1">

<defs>
<!-- polycosvg ratio="1.000000" offsetx="0.000000" offsety="0.000000" / -->
</defs><g>
<path style="fill:rgb(100.0%,100.0%,100.0%);fill-rule:evenodd;stroke:none;" name="Path No.24" d="M 0.0 80.0 C 26.675621 80.0 53.329712 80.0 80.0 80.0 C 80.0 53.321407 80.0 26.67326 80.0 0.0 C 53.328335 0.0 26.661854 0.0 0.0 0.0 C 0.0 26.668692 0.0 53.341118 0.0 80.0 Z M 17.5 49.0 C 17.115889 49.971863 16.989391 50.963234 17.0 52.0 C 20.89731 52.926926 25.266567 53.485523 29.055984 51.779747 C 31.366 51.168278 32.16433 50.286427 32.948017 48.115803 C 33.74447 46.610252 33.946434 43.22029 32.951817 42.093826 C 30.464859 37.439255 22.132008 36.11274 21.659645 31.635187 C 20.349745 26.03978 29.38257 27.099176 32.0 28.0 C 31.505547 25.078754 27.090073 24.320292 24.905731 24.597971 C 20.719843 24.94767 16.595041 29.376556 17.669252 33.217762 C 18.69833 37.231934 22.680536 39.05489 26.069225 40.741455 C 29.425959 42.170902 31.250385 46.433247 28.085243 48.710308 C 25.916662 50.95073 19.9175 49.618027 17.5 49.0 Z M 41.0 53.0 C 41.663906 53.0 42.339565 53.0 43.0 53.0 C 45.875862 50.59299 44.560814 45.359035 44.996742 42.134575 C 45.060555 38.387615 44.695812 34.666523 44.0 31.0 C 48.60849 31.263462 50.244232 38.769814 52.419342 41.708282 C 54.179348 44.593967 55.965553 48.165367 57.79551 50.672188 C 59.223892 52.57217 62.46143 53.573776 63.489082 50.905544 C 64.60448 42.36033 63.56583 33.58623 64.0 25.0 C 62.65595 25.0 61.336506 25.0 60.0 25.0 C 59.843296 31.686516 59.952194 38.381805 61.0 45.0 C 51.008373 43.226566 53.19763 23.055073 41.0 25.0 C 41.0 34.33924 41.0 43.66796 41.0 53.0 Z " />

<path style="fill:rgb(11.764706%,20.784313%,73.725494%);fill-rule:evenodd;stroke:none;" name="Path No.25" d="M 22.0 30.25 C 24.796371 27.75366 29.985764 28.06585 32.5 30.0 C 32.870358 29.157639 33.29408 28.312113 34.0 27.5 C 30.65729 22.434057 22.612858 21.84305 18.477772 26.398808 C 14.630951 30.140547 16.157015 36.908245 20.599632 39.266724 C 23.201292 41.236416 30.004765 42.956738 28.049225 46.797916 C 25.353569 50.009525 18.940386 48.87354 16.5 47.0 C 16.031631 48.448963 15.044967 50.371437 16.041471 51.082718 C 16.498116 52.751904 17.57093 53.316753 19.274057 53.593338 C 22.96358 54.727333 27.04167 54.44007 30.502499 52.562313 C 32.499195 51.61718 34.377335 49.239697 34.601433 47.19345 C 35.36453 44.446846 34.377125 40.982243 32.724365 39.48367 C 29.751984 35.930195 23.69407 35.078552 22.250587 31.057337 C 22.169518 30.796148 22.074387 30.48966 22.0 30.25 Z M 40.0 54.0 C 41.65507 53.827232 43.952682 53.84626 45.108944 52.683975 C 45.923023 51.084316 45.76862 48.531868 45.990868 47.1074 C 46.304844 42.7133 45.538734 36.554543 46.5 33.0 C 49.506935 39.254875 52.717304 45.462036 56.474525 51.3056 C 58.501953 54.59942 64.76891 54.338963 64.66617 50.44842 C 65.30568 46.62202 64.8056 42.69352 65.0 38.85001 C 65.0 33.88471 65.0 28.95004 65.0 24.0 C 62.997147 24.0 60.99252 24.0 59.0 24.0 C 59.180412 30.383081 58.486256 38.025585 60.0 43.75 C 52.989777 38.52091 52.576286 22.066902 40.0 24.0 C 40.0 33.997692 40.0 44.002724 40.0 54.0 Z M 45.0 32.4375 C 45.342556 32.84782 45.63123 32.73697 46.0 32.5 C 45.680393 32.29658 45.35574 32.069584 45.0 32.4375 Z " />
</g>
</svg>
