<?xml version="1.0" encoding="UTF-8"?>
<svg xmlns="http://www.w3.org/2000/svg" xmlns:xlink="http://www.w3.org/1999/xlink" width="80.0px" height="80.0px" viewBox="0 0 80.0 80.0" version="1.1">

<defs>
<!-- polycosvg ratio="1.000000" offsetx="0.000000" offsety="0.000000" / -->
</defs><g>
<path style="fill:rgb(100.0%,100.0%,100.0%);fill-rule:evenodd;stroke:none;" name="Path No.30" d="M 0.0 80.0 C 26.675621 80.0 53.329712 80.0 80.0 80.0 C 80.0 53.321407 80.0 26.67326 80.0 0.0 C 53.328335 0.0 26.661854 0.0 0.0 0.0 C 0.0 26.668692 0.0 53.341118 0.0 80.0 Z M 11.0 28.75 C 11.990534 31.452227 16.737597 30.683504 18.862429 31.0 C 19.243988 31.0 19.623178 31.0 20.0 31.0 C 20.0 39.336723 20.0 47.673943 20.0 56.0 C 21.344051 56.0 22.663496 56.0 24.0 56.0 C 24.0 47.663277 24.0 39.326057 24.0 31.0 C 26.66587 31.0 29.337166 31.0 32.0 31.0 C 32.0 30.011997 32.0 28.979248 32.0 28.0 C 25.00463 28.0 17.99537 28.0 11.0 28.0 C 11.0 28.255077 11.0 28.498953 11.0 28.75 Z M 36.0 55.0 C 37.34405 55.0 38.663494 55.0 40.0 55.0 C 40.0 47.00677 40.0 38.99323 40.0 31.0 C 40.983627 31.0 42.016373 31.0 43.0 31.0 C 43.979794 35.701366 46.194798 40.058876 47.40097 44.70043 C 48.94866 49.14288 49.92103 55.20501 55.0 55.0 C 56.800064 46.762863 60.876865 39.127052 63.0 31.0 C 63.983627 31.0 65.01637 31.0 66.0 31.0 C 66.0 38.99323 66.0 47.00677 66.0 55.0 C 67.34405 55.0 68.6635 55.0 70.0 55.0 C 70.0 48.99537 70.0 43.00463 70.0 37.0 C 69.86926 34.322277 70.236885 30.986006 69.27455 28.66126 C 68.05024 26.594936 63.881676 27.371437 62.0 27.0 C 60.490185 33.859226 55.82392 39.921875 55.0 47.0 C 53.65595 47.0 52.336506 47.0 51.0 47.0 C 50.42021 42.184414 47.80032 37.870525 46.55888 33.23336 C 45.732513 31.21386 44.7467 28.138351 42.628464 27.463854 C 40.062206 27.072412 38.204575 26.997849 36.0 28.0 C 36.0 37.00756 36.0 46.00027 36.0 55.0 Z " />

<path style="fill:rgb(100.0%,0.0%,1.5686276%);fill-rule:evenodd;stroke:none;" name="Path No.31" d="M 19.0 32.0 C 19.0 40.336723 19.0 48.673943 19.0 57.0 C 20.997684 57.0 23.002316 57.0 25.0 57.0 C 25.0 48.663277 25.0 40.326057 25.0 32.0 C 27.66587 32.0 30.337166 32.0 33.0 32.0 C 33.0 30.322165 33.0 28.669388 33.0 27.0 C 25.33779 27.0 17.656878 27.0 10.0 27.0 C 9.7984705 31.587011 12.873438 32.348953 16.285873 31.984476 C 17.19727 32.005444 18.096035 31.998348 19.0 32.0 Z " />

<path style="fill:rgb(0.0%,0.0%,0.0%);fill-rule:evenodd;stroke:none;" name="Path No.32" d="M 35.0 56.0 C 36.997684 56.0 39.002316 56.0 41.0 56.0 C 41.596466 48.0664 40.23687 39.853603 41.5 32.0 C 43.684998 36.739384 44.928783 41.860737 46.76131 46.73802 C 47.90839 51.37503 49.325737 56.91101 56.0 56.0 C 58.150364 48.0726 61.66138 38.96917 64.5 32.0 C 65.75942 39.900738 64.40724 48.05123 65.0 56.0 C 67.00285 56.0 69.007484 56.0 71.0 56.0 C 71.0 49.39537 71.0 42.80463 71.0 36.2 C 70.67926 33.16634 71.51559 29.005894 69.68464 26.891726 C 67.07052 25.663696 63.534763 26.168602 61.0 26.0 C 59.490185 32.859226 54.82392 38.921875 54.0 46.0 C 53.336094 46.0 52.660435 46.0 52.0 46.0 C 51.31843 40.912075 48.57507 36.29135 47.255157 31.375448 C 45.903576 25.449642 39.36787 25.191391 35.0 27.0 C 35.0 36.680042 35.0 46.334522 35.0 56.0 Z " />
</g>
</svg>
