<?xml version="1.0" encoding="UTF-8"?>
<svg xmlns="http://www.w3.org/2000/svg" xmlns:xlink="http://www.w3.org/1999/xlink" width="50.0px" height="50.0px" viewBox="0 0 50.0 50.0" version="1.1">

<defs>
<!-- polycosvg ratio="1.000000" offsetx="0.000000" offsety="0.000000" / -->
</defs><g>
<path style="fill:rgb(0.0%,0.0%,0.0%);fill-rule:evenodd;stroke:none;" name="Path No.1" d="M 6.0 25.208168 C 5.983223 30.268652 5.330444 36.50183 9.740948 40.926277 C 14.137767 45.636436 19.908785 44.965683 25.698206 45.0 C 30.419561 45.03124 36.575783 45.612385 40.926666 41.258816 C 45.635914 36.86248 44.966076 31.091047 45.0 25.301794 C 45.03124 20.580439 45.612385 14.424216 41.258816 10.073334 C 36.86248 5.364085 31.091047 6.0339236 25.301794 6.0 C 20.452356 5.956735 14.002788 5.363637 9.704296 10.118413 C 5.6788316 13.994648 5.769887 19.730398 6.0 25.208168 Z M 11.0 25.386671 C 11.149792 29.751045 10.403052 34.779106 13.673996 37.685272 C 16.564213 40.771725 22.295265 39.657387 25.912363 40.0 C 29.995714 39.87939 34.855453 40.443615 37.700874 37.325314 C 40.771164 34.436832 39.65311 28.703278 40.0 25.085848 C 39.84607 21.003767 40.496246 16.125952 37.32225 13.302297 C 34.427372 10.236544 28.698107 11.336992 25.087664 11.0 C 21.038486 10.950862 15.822943 10.76891 13.3314705 13.643849 C 10.459709 16.750895 11.064029 21.248228 11.0 25.386671 Z M 15.0 31.0 C 17.330042 31.0 19.677265 31.0 22.0 31.0 C 22.0 32.34405 22.0 33.663494 22.0 35.0 C 26.668407 33.81038 32.766205 30.730549 36.0 28.5 C 31.561016 26.380053 25.924019 22.206293 22.0 21.0 C 22.0 22.677835 22.0 24.330612 22.0 26.0 C 21.011997 26.0 19.979248 26.0 19.0 26.0 C 19.0 23.010054 19.0 19.977646 19.0 17.0 C 17.655949 17.0 16.336504 17.0 15.0 17.0 C 15.0 21.668844 15.0 26.336496 15.0 31.0 Z " />
</g>
</svg>
