<?xml version="1.0" encoding="UTF-8"?>
<svg xmlns="http://www.w3.org/2000/svg" xmlns:xlink="http://www.w3.org/1999/xlink" width="800.0px" height="500.0px" viewBox="0 0 800.0 500.0" version="1.1">

<defs>
<!-- polycosvg ratio="1.000000" offsetx="0.000000" offsety="0.000000" / -->
</defs><g>
<path style="fill:rgb(100.0%,100.0%,100.0%);fill-rule:evenodd;stroke:none;" name="Path No.101" d="M 0.0 500.0 C 9.670359 500.0 19.34199 500.0 29.0 500.0 C 29.0 499.50067 29.0 498.99338 29.0 498.5 C 18.568676 484.38763 9.172313 469.18018 0.5 454.0 C -0.89978164 468.98605 0.733115 484.83234 0.0 500.0 Z M 35.0 177.0 C 36.677834 177.0 38.330612 177.0 40.0 177.0 C 40.051407 174.54308 39.808823 171.19472 41.5 169.0 C 42.3882 171.11584 41.71915 174.35507 42.0 177.0 C 43.677834 177.0 45.330612 177.0 47.0 177.0 C 47.0 174.33414 47.0 171.66283 47.0 169.0 C 47.663906 169.0 48.339565 169.0 49.0 169.0 C 49.0 171.66586 49.0 174.33717 49.0 177.0 C 50.677834 177.0 52.330612 177.0 54.0 177.0 C 53.989605 175.33275 54.16198 173.63144 54.5 172.0 C 55.50437 177.30238 60.421684 177.15846 64.08666 177.0 C 64.73695 177.0 65.35745 177.0 66.0 177.0 C 66.22426 173.1925 67.37019 169.17033 65.317894 165.69237 C 63.404484 162.74866 57.57259 164.48888 55.88272 166.15225 C 54.995075 166.71814 54.854057 168.2934 54.5 169.0 C 53.97299 163.76826 49.29322 163.86246 45.68184 163.76837 C 42.12214 163.29375 38.56443 163.98038 35.0 164.0 C 35.0 168.3437 35.0 172.65851 35.0 177.0 Z M 41.0 50.0 C 42.997684 50.0 45.002316 50.0 47.0 50.0 C 47.0 46.49028 47.0 42.99954 47.0 39.5 C 47.169968 38.990097 47.331684 38.504948 47.5 38.0 C 50.547337 43.505585 52.887817 50.992382 61.0 50.0 C 61.0 42.00677 61.0 33.99323 61.0 26.0 C 59.34409 26.17543 57.03228 26.155313 55.882145 27.324562 C 55.103043 28.919909 55.187763 31.45649 54.946823 32.870834 C 55.018303 33.950153 54.884106 34.988087 54.5 36.0 C 52.476463 30.69223 48.74229 22.944979 41.0 27.0 C 41.0 34.679478 41.0 42.33595 41.0 50.0 Z M 60.0 172.3125 C 60.33842 173.05884 61.505215 172.79791 62.060238 172.679 C 62.369755 172.62004 62.699635 172.5572 63.0 172.5 C 62.003014 172.32872 61.00953 172.08572 60.0 172.0 C 60.0 172.10417 60.0 172.20833 60.0 172.3125 Z " />

<path style="fill:rgb(0.0%,0.0%,0.0%);fill-rule:evenodd;stroke:none;" name="Path No.102" d="M 50.0 66.0 C 50.159256 92.67609 49.640327 119.34474 49.0 146.0 C 36.63701 146.66202 26.236973 158.73969 27.049204 170.9321 C 26.984898 184.02454 39.695133 195.10474 52.51349 193.93425 C 65.79749 193.82129 76.41476 181.06363 74.91177 168.09392 C 74.43446 156.50296 63.532513 146.10649 52.0 146.0 C 51.719055 119.32619 52.097214 92.647194 53.0 66.0 C 58.795414 66.0 64.60458 66.0 70.4 66.0 C 77.58519 66.552605 88.88428 67.17429 88.92323 55.810917 C 89.12754 47.08882 88.89805 38.383038 89.0 29.67319 C 89.30531 22.547215 90.82683 10.747297 79.3908 10.115533 C 70.45146 9.814697 61.50912 10.146791 52.572674 10.0 C 43.41912 10.003525 34.300297 9.995702 25.155327 10.002321 C 21.391825 9.822779 16.604519 10.100815 13.849884 14.136538 C 11.435759 17.588078 12.133258 22.012789 12.0 26.079058 C 12.0 32.39037 12.0 38.666813 12.0 44.973232 C 11.7159605 52.542202 9.780487 65.53331 22.180592 65.92303 C 31.46299 66.131226 40.729504 65.89444 50.0 66.0 Z M 36.0 176.0 C 36.983627 176.0 38.016373 176.0 39.0 176.0 C 38.89236 172.743 39.1028 169.3406 41.5 167.0 C 41.999336 167.0 42.50663 167.0 43.0 167.0 C 43.0 169.98994 43.0 173.02235 43.0 176.0 C 43.983627 176.0 45.016373 176.0 46.0 176.0 C 46.0 173.33414 46.0 170.66283 46.0 168.0 C 47.340027 167.665 48.662235 167.33444 50.0 167.0 C 50.0 169.98994 50.0 173.02235 50.0 176.0 C 50.983627 176.0 52.016373 176.0 53.0 176.0 C 52.494316 172.80516 53.91922 167.3547 51.12507 165.61519 C 48.24252 165.03442 44.966305 165.96608 42.5 164.0 C 40.42271 165.73868 38.28347 165.40334 36.0 165.0 C 36.0 168.67546 36.0 172.33508 36.0 176.0 Z M 42.0 49.0 C 43.34405 49.0 44.663494 49.0 46.0 49.0 C 46.398487 44.02531 45.434845 37.036022 46.5 33.0 C 48.054447 36.36672 49.984673 39.480213 51.816013 42.691044 C 53.254448 46.06843 55.150154 49.557934 60.0 49.0 C 60.0 41.65745 60.0 34.331882 60.0 27.0 C 59.336094 27.0 58.660435 27.0 58.0 27.0 C 54.25163 29.803234 57.31835 36.667736 55.5 41.0 C 52.7988 35.31729 49.212936 24.568079 42.0 28.0 C 42.0 34.99912 42.0 42.001274 42.0 49.0 Z M 65.0 176.0 C 65.02045 174.9566 64.89255 173.9678 64.5 173.0 C 62.91352 174.03578 60.663715 173.97696 59.0 174.0 C 59.0 173.01637 59.0 171.98363 59.0 171.0 C 61.330044 171.0 63.677265 171.0 66.0 171.0 C 66.0 170.50066 66.0 169.99336 66.0 169.5 C 65.32722 166.54114 61.33933 163.1252 58.017826 166.16698 C 56.749107 167.14954 56.086987 168.12784 55.938797 169.63828 C 55.574253 170.68025 56.313034 172.68156 56.85659 173.65512 C 58.34428 175.48236 60.81435 176.1259 63.66884 175.9992 C 64.10788 176.00006 64.60806 176.00021 65.0 176.0 Z M 63.0 168.5 C 61.907017 167.10883 60.556915 166.84152 59.0 167.0 C 58.906925 168.9084 60.411587 169.2436 61.852917 168.93501 C 62.293858 168.88928 62.68163 168.75339 63.0 168.5 Z " />

<path style="fill:rgb(46.27451%,46.27451%,46.27451%);fill-rule:evenodd;stroke:none;" name="Path No.103" d="M 46.0 33.4375 C 46.342556 33.84782 46.63123 33.73697 47.0 33.5 C 46.680393 33.29658 46.35574 33.069584 46.0 33.4375 Z " />
</g>
</svg>
