<?xml version="1.0" encoding="UTF-8"?>
<svg xmlns="http://www.w3.org/2000/svg" xmlns:xlink="http://www.w3.org/1999/xlink" width="800.0px" height="500.0px" viewBox="0 0 800.0 500.0" version="1.1">

<defs>
<!-- polycosvg ratio="1.000000" offsetx="0.000000" offsety="0.000000" / -->
</defs><g>
<path style="fill:rgb(100.0%,100.0%,100.0%);fill-rule:evenodd;stroke:none;" name="Path No.0" d="M 0.0 500.0 C 9.670359 500.0 19.34199 500.0 29.0 500.0 C 29.0 499.50067 29.0 498.99338 29.0 498.5 C 18.568676 484.38763 9.172313 469.18018 0.5 454.0 C -0.89978164 468.98605 0.733115 484.83234 0.0 500.0 Z M 31.0 310.0 C 32.677834 310.0 34.330612 310.0 36.0 310.0 C 36.051407 307.54306 35.808823 304.19473 37.5 302.0 C 38.3882 304.11584 37.71915 307.35507 38.0 310.0 C 39.677834 310.0 41.330612 310.0 43.0 310.0 C 43.0 307.33414 43.0 304.66284 43.0 302.0 C 43.663906 302.0 44.339565 302.0 45.0 302.0 C 45.0 304.66586 45.0 307.33716 45.0 310.0 C 46.677834 310.0 48.330612 310.0 50.0 310.0 C 49.989605 308.33273 50.16198 306.63144 50.5 305.0 C 51.50437 310.3024 56.421684 310.15848 60.086662 310.0 C 60.736954 310.0 61.357456 310.0 62.0 310.0 C 62.22426 306.1925 63.370197 302.17032 61.31789 298.69235 C 59.404484 295.74866 53.57259 297.48886 51.88272 299.15225 C 50.995075 299.71814 50.854057 301.2934 50.5 302.0 C 49.97299 296.76828 45.29322 296.86246 41.68184 296.76837 C 38.12214 296.29376 34.56443 296.98038 31.0 297.0 C 31.0 301.3298 31.0 305.6724 31.0 310.0 Z M 37.0 139.5 C 37.0 139.99934 37.0 140.50664 37.0 141.0 C 39.330044 141.0 41.677265 141.0 44.0 141.0 C 44.151917 139.29898 44.595795 137.6541 45.0 136.0 C 47.330044 136.0 49.677265 136.0 52.0 136.0 C 52.151917 137.70102 52.595795 139.3459 53.0 141.0 C 55.330044 141.0 57.677265 141.0 60.0 141.0 C 60.0 140.50066 60.0 139.99336 60.0 139.5 C 57.529583 133.08093 55.725803 125.04053 52.65735 119.49287 C 51.713383 115.80094 44.80479 117.26742 44.137207 119.82971 C 42.34045 122.886635 41.494392 126.36315 40.263546 129.6506 C 39.385773 132.88747 37.709663 136.91583 37.0 139.5 Z M 38.0 52.0 C 40.330044 52.0 42.677265 52.0 45.0 52.0 C 45.0 49.01005 45.0 45.977646 45.0 43.0 C 47.002853 43.0 49.00748 43.0 51.0 43.0 C 51.0 45.98995 51.0 49.022354 51.0 52.0 C 52.997684 52.0 55.002316 52.0 57.0 52.0 C 57.0 44.00677 57.0 35.99323 57.0 28.0 C 54.997147 28.0 52.99252 28.0 51.0 28.0 C 51.0 30.989946 51.0 34.022354 51.0 37.0 C 48.997147 37.0 46.99252 37.0 45.0 37.0 C 45.0 34.01005 45.0 30.977646 45.0 28.0 C 42.669956 28.0 40.322735 28.0 38.0 28.0 C 38.0 36.006145 38.0 43.999157 38.0 52.0 Z M 39.0 231.0 C 41.002853 231.0 43.00748 231.0 45.0 231.0 C 45.0 227.49028 45.0 223.99954 45.0 220.5 C 45.169968 219.9901 45.331684 219.50494 45.5 219.0 C 48.547337 224.50558 50.887817 231.99239 59.0 231.0 C 59.0 223.00677 59.0 214.99323 59.0 207.0 C 57.34409 207.17543 55.03228 207.15532 53.882145 208.32455 C 53.103043 209.9199 53.187763 212.45648 52.946823 213.87083 C 53.018303 214.95015 52.884106 215.98808 52.5 217.0 C 50.476463 211.69223 46.74229 203.94498 39.0 208.0 C 39.0 215.67947 39.0 223.33595 39.0 231.0 Z M 49.0 131.0 C 49.04155 129.96089 48.944397 128.94438 48.5 128.0 C 46.86774 128.84698 46.29976 131.07736 49.0 131.0 Z M 56.0 305.3125 C 56.33842 306.05884 57.505215 305.7979 58.060238 305.67902 C 58.369755 305.62006 58.699635 305.55722 59.0 305.5 C 58.003014 305.32874 57.00953 305.08572 56.0 305.0 C 56.0 305.10416 56.0 305.20834 56.0 305.3125 Z M 163.0 143.0 C 164.99768 143.0 167.00232 143.0 169.0 143.0 C 169.0 139.49028 169.0 135.99954 169.0 132.5 C 169.16997 131.9901 169.33168 131.50494 169.5 131.0 C 172.54733 136.50558 174.88782 143.99239 183.0 143.0 C 183.0 135.00677 183.0 126.993225 183.0 119.0 C 181.34409 119.17543 179.03229 119.15531 177.88214 120.32456 C 177.10304 121.91991 177.18776 124.45649 176.94682 125.870834 C 177.01831 126.95015 176.88411 127.98808 176.5 129.0 C 174.47646 123.69223 170.7423 115.94498 163.0 120.0 C 163.0 127.679474 163.0 135.33595 163.0 143.0 Z M 186.0 143.0 C 191.00337 143.0 196.01263 143.0 201.0 143.0 C 201.0 140.99715 201.0 138.99252 201.0 137.0 C 198.33414 137.0 195.66283 137.0 193.0 137.0 C 193.0 135.65594 193.0 134.3365 193.0 133.0 C 195.33005 133.0 197.67726 133.0 200.0 133.0 C 200.0 131.32216 200.0 129.66939 200.0 128.0 C 197.66995 128.0 195.32274 128.0 193.0 128.0 C 193.0 127.01637 193.0 125.98363 193.0 125.0 C 195.66586 125.0 198.33717 125.0 201.0 125.0 C 201.0 122.99715 201.0 120.992516 201.0 119.0 C 196.12363 119.177124 190.25241 118.50083 186.0 120.0 C 186.0 127.679474 186.0 135.33595 186.0 143.0 Z M 292.0 124.0 C 294.33005 124.0 296.67728 124.0 299.0 124.0 C 299.0 130.66913 299.0 137.3362 299.0 144.0 C 301.33005 144.0 303.67728 144.0 306.0 144.0 C 306.0 137.33087 306.0 130.6638 306.0 124.0 C 308.00284 124.0 310.00748 124.0 312.0 124.0 C 312.0 122.00231 312.0 119.99769 312.0 118.0 C 305.77502 118.42627 296.92365 117.240395 292.0 119.0 C 292.0 120.68733 292.0 122.31511 292.0 124.0 Z M 331.0 137.0 C 328.009 137.4905 325.06473 137.48409 322.06293 137.50957 C 320.34546 137.18091 319.6121 134.03891 319.0747 132.75002 C 318.40485 130.37114 319.40833 127.2645 321.69882 125.47882 C 323.51794 123.23173 327.76813 126.31253 330.0 126.0 C 329.95422 124.05162 329.9196 120.91886 328.55576 119.76233 C 326.7416 118.278244 324.0779 118.157425 321.86185 118.208015 C 316.9029 118.18306 312.75677 121.75843 311.76114 126.63671 C 310.1407 131.45598 311.83987 139.42361 315.1999 142.09943 C 319.5989 145.336 329.58313 144.43799 330.63263 139.7063 C 330.9268 138.83693 330.9319 137.90285 331.0 137.0 Z " />

<path style="fill:rgb(46.27451%,46.27451%,46.27451%);fill-rule:evenodd;stroke:none;" name="Path No.1" d="M 44.5 216.0 C 44.79455 215.35721 44.984505 214.70184 45.0 214.0 C 44.11602 214.05753 43.935356 214.77295 44.16667 215.48134 C 44.277782 215.65422 44.38889 215.82712 44.5 216.0 Z M 168.5 128.0 C 168.79456 127.35721 168.98451 126.701836 169.0 126.0 C 168.11603 126.057526 167.93536 126.77294 168.16667 127.48133 C 168.27779 127.65422 168.38889 127.82711 168.5 128.0 Z " />

<path style="fill:rgb(0.0%,0.0%,0.0%);fill-rule:evenodd;stroke:none;" name="Path No.2" d="M 47.0 68.0 C 47.0 79.34865 47.0 90.66202 47.0 102.0 C 40.9975 102.0 35.0025 102.0 29.0 102.0 C 21.471321 101.316536 9.71321 100.83451 10.049318 112.78298 C 9.913572 121.70367 10.069989 130.60599 10.0 139.51451 C 9.28222 146.9569 9.088707 158.34082 20.770908 157.95045 C 29.504227 158.08638 38.26794 157.93015 47.0 158.0 C 47.0 168.9942 47.0 180.0058 47.0 191.0 C 41.201466 191.0 35.398537 191.0 29.6 191.0 C 22.422886 190.4474 11.107645 189.82571 11.076764 201.18909 C 10.872457 209.91118 11.101955 218.61696 11.0 227.32681 C 10.883404 234.21643 9.029409 245.72047 19.993252 246.81845 C 28.644814 247.27827 37.346947 246.78224 46.0 247.0 C 46.0 257.67813 46.0 268.3272 46.0 279.0 C 33.226917 279.0411 22.172903 291.3689 23.049204 303.9321 C 22.984898 317.02454 35.695133 328.10474 48.51349 326.93423 C 61.797493 326.8213 72.41476 314.06363 70.91177 301.0939 C 70.43133 289.81427 60.157295 279.71054 49.0 279.0 C 49.0 268.32187 49.0 257.6728 49.0 247.0 C 55.41181 247.0 61.80255 247.0 68.2 247.0 C 72.65814 246.78392 78.123535 247.49431 82.06127 246.11989 C 89.69227 242.62698 87.63923 235.16994 88.0 228.48811 C 88.0 221.56009 88.0 214.63206 88.0 207.70404 C 87.98096 203.60384 88.377304 199.23032 86.462296 195.44765 C 82.43127 189.73328 74.969246 191.12831 69.526665 191.0 C 63.025047 191.0 56.501167 191.0 50.0 191.0 C 50.0 180.0058 50.0 168.9942 50.0 158.0 C 56.00463 158.0 61.99537 158.0 68.0 158.0 C 75.52868 158.68347 87.28679 159.1655 86.95068 147.21703 C 87.086426 138.29634 86.93001 129.39401 87.0 120.48549 C 87.71778 113.043106 87.91129 101.65919 76.229095 102.04954 C 67.49577 101.91363 58.73206 102.06986 50.0 102.0 C 50.0 90.65135 50.0 79.33798 50.0 68.0 C 57.81168 68.0 65.58832 68.0 73.4 68.0 C 79.98053 68.146484 85.85435 63.504803 91.89584 69.40522 C 101.3304 76.50246 111.130745 83.09087 120.57306 90.15908 C 124.7805 93.209015 129.04025 96.17992 133.26132 99.20987 C 136.83092 102.24348 142.69264 104.906624 142.31657 109.23791 C 141.7255 119.60826 142.16898 129.99463 142.0 140.36397 C 142.14888 144.63362 141.51302 149.98865 143.1624 153.6873 C 146.51799 161.07545 159.2841 158.60252 165.3173 159.0 C 180.37064 158.67032 195.48674 159.40385 210.51973 158.77753 C 222.84508 156.94934 217.93427 138.65498 219.0 130.98682 C 218.10356 123.15208 220.54376 113.0279 217.05803 107.03653 C 213.05539 101.61674 205.64876 103.31258 200.44998 103.0 C 191.11406 103.0 181.77812 103.0 172.4422 103.0 C 167.66698 103.0 162.89969 103.0 158.14035 103.0 C 153.90594 103.17972 148.4528 102.50175 145.5 105.0 C 125.337395 91.356224 106.09128 76.22168 86.0 62.5 C 87.06336 60.84636 86.9096 58.79811 87.5 57.0 C 109.69307 64.79512 133.51329 68.61094 156.65697 72.7497 C 168.59346 74.55717 180.55013 76.07901 192.49493 77.722984 C 198.3507 78.450615 204.1906 79.04377 210.00456 79.99193 C 212.90546 80.41079 215.80222 80.6733 218.70885 81.03907 C 221.34152 81.27609 224.22469 82.080666 225.5 80.0 C 227.197 83.83784 230.43536 86.66208 233.11858 89.7644 C 235.81058 92.48604 238.34169 97.094765 242.0 98.0 C 242.60593 95.17724 242.17589 92.486725 240.0 90.5 C 240.0 90.00066 240.0 89.49337 240.0 89.0 C 242.96936 88.58363 243.928 85.57943 242.87755 83.34273 C 242.45097 82.17424 241.51082 80.85651 241.0 79.5 C 246.93654 75.07839 245.99164 68.72106 240.69452 64.719574 C 236.52759 61.129738 229.971 61.545177 226.69751 66.07329 C 223.67946 69.63652 223.89484 74.752174 225.0 79.0 C 178.44786 74.590126 132.11972 67.18437 87.0 55.0 C 87.0 48.001602 87.0 40.998398 87.0 34.0 C 86.70487 28.924845 87.555214 22.732687 86.219734 18.19607 C 83.25405 10.13574 73.06416 12.204792 66.66224 12.0 C 58.90745 12.0 51.160614 12.0 43.42172 12.0 C 37.071186 12.0 30.687218 12.0 24.352577 12.0 C 20.433432 11.87919 15.285549 11.675282 12.150431 15.753407 C 8.710367 20.439606 10.572823 28.685814 10.0 35.189354 C 10.014421 42.105156 9.982324 49.00157 10.009764 55.90691 C 9.416159 65.672905 16.230165 68.82052 23.73712 67.99913 C 31.495235 68.00161 39.247005 67.99868 47.0 68.0 Z M 32.0 309.0 C 32.983627 309.0 34.016373 309.0 35.0 309.0 C 34.89236 305.743 35.1028 302.3406 37.5 300.0 C 37.999336 300.0 38.50663 300.0 39.0 300.0 C 39.0 302.9838 39.0 306.0162 39.0 309.0 C 39.983627 309.0 41.016373 309.0 42.0 309.0 C 42.0 306.33414 42.0 303.66284 42.0 301.0 C 43.340027 300.66498 44.662235 300.33444 46.0 300.0 C 46.0 302.9838 46.0 306.0162 46.0 309.0 C 46.983627 309.0 48.016373 309.0 49.0 309.0 C 48.494316 305.80515 49.91922 300.3547 47.12507 298.6152 C 44.24252 298.03442 40.966305 298.96606 38.5 297.0 C 36.42271 298.73868 34.28347 298.40332 32.0 298.0 C 32.0 301.66156 32.0 305.34897 32.0 309.0 Z M 38.0 139.5 C 39.21437 140.31018 41.350582 139.76765 43.0 140.0 C 43.151917 138.29898 43.595795 136.6541 44.0 135.0 C 46.98995 135.0 50.022354 135.0 53.0 135.0 C 53.151917 136.70102 53.595795 138.3459 54.0 140.0 C 55.682728 139.9896 57.38693 140.00735 59.0 139.5 C 55.351295 133.13222 55.205105 124.77182 50.59339 118.849625 C 46.013752 116.85353 44.573402 121.05537 43.40243 124.48311 C 42.126656 128.10959 40.867985 131.76852 39.69654 135.42601 C 39.452038 137.04126 38.736664 138.35156 38.0 139.5 Z M 39.0 51.0 C 40.677834 51.0 42.330612 51.0 44.0 51.0 C 44.0 48.01005 44.0 44.977646 44.0 42.0 C 46.66587 42.0 49.337166 42.0 52.0 42.0 C 52.0 44.98995 52.0 48.022354 52.0 51.0 C 53.34405 51.0 54.663494 51.0 56.0 51.0 C 56.0 43.65745 56.0 36.331882 56.0 29.0 C 54.65595 29.0 53.336506 29.0 52.0 29.0 C 52.0 31.989946 52.0 35.022354 52.0 38.0 C 49.33413 38.0 46.662834 38.0 44.0 38.0 C 44.0 35.01005 44.0 31.977646 44.0 29.0 C 42.322166 29.0 40.669388 29.0 39.0 29.0 C 39.0 36.346966 39.0 43.662983 39.0 51.0 Z M 40.0 230.0 C 41.34405 230.0 42.663494 230.0 44.0 230.0 C 44.602646 225.08429 43.23069 219.80371 44.5 215.0 C 49.035107 219.96762 50.84623 230.49785 58.0 230.0 C 58.0 222.65746 58.0 215.33188 58.0 208.0 C 57.336094 208.0 56.660435 208.0 56.0 208.0 C 52.25163 210.80324 55.31835 217.66774 53.5 222.0 C 50.7988 216.31729 47.212936 205.56808 40.0 209.0 C 40.0 215.99911 40.0 223.00127 40.0 230.0 Z M 46.0 132.0 C 47.677834 132.0 49.330612 132.0 51.0 132.0 C 50.268364 129.48201 49.228672 126.04293 48.5 124.0 C 46.59522 126.08398 46.01645 129.5539 46.0 132.0 Z M 61.0 309.0 C 61.020443 307.9566 60.892548 306.9678 60.5 306.0 C 58.91352 307.03577 56.663715 306.97696 55.0 307.0 C 55.0 306.012 55.0 304.97925 55.0 304.0 C 57.330044 304.0 59.677265 304.0 62.0 304.0 C 62.0 303.50067 62.0 302.99338 62.0 302.5 C 61.327217 299.54114 57.33933 296.12518 54.017826 299.167 C 52.749107 300.14954 52.086987 301.12784 51.938797 302.63828 C 51.574253 303.68027 52.313034 305.68155 52.85659 306.65512 C 54.34428 308.48236 56.81435 309.1259 59.66884 308.9992 C 60.10788 309.00006 60.608067 309.0002 61.0 309.0 Z M 59.0 301.5 C 57.907017 300.10883 56.556915 299.84152 55.0 300.0 C 54.906925 301.90842 56.411587 302.24362 57.852917 301.93503 C 58.293858 301.88928 58.68163 301.7534 59.0 301.5 Z M 164.0 142.0 C 165.34406 142.0 166.6635 142.0 168.0 142.0 C 168.60265 137.08429 167.23068 131.80371 168.5 127.0 C 173.03511 131.96762 174.84622 142.49785 182.0 142.0 C 182.0 134.66476 182.0 127.33143 182.0 120.0 C 181.33609 120.0 180.66043 120.0 180.0 120.0 C 176.25163 122.80324 179.31834 129.66774 177.5 134.0 C 174.7988 128.31729 171.21294 117.56808 164.0 121.0 C 164.0 127.99912 164.0 135.00127 164.0 142.0 Z M 187.0 142.0 C 191.33867 142.0 195.672 142.0 200.0 142.0 C 200.0 140.65594 200.0 139.3365 200.0 138.0 C 197.33414 138.0 194.66283 138.0 192.0 138.0 C 192.0 135.99715 192.0 133.99252 192.0 132.0 C 194.33005 132.0 196.67726 132.0 199.0 132.0 C 199.0 131.01637 199.0 129.98363 199.0 129.0 C 196.66995 129.0 194.32274 129.0 192.0 129.0 C 192.0 127.32217 192.0 125.66939 192.0 124.0 C 194.66586 124.0 197.33717 124.0 200.0 124.0 C 200.0 122.65595 200.0 121.3365 200.0 120.0 C 195.71677 120.01012 190.69753 119.71509 187.0 121.0 C 187.0 127.99912 187.0 135.00127 187.0 142.0 Z M 242.0 90.5625 C 242.5571 92.23809 243.95477 93.356064 245.0 94.75 C 244.42593 96.22665 242.94902 97.869156 242.0 99.5 C 242.51176 100.01176 242.99286 100.49286 243.5 101.0 C 249.38925 99.86458 253.25092 91.461365 258.2184 87.2499 C 262.21686 83.02042 266.74 76.20507 264.11618 68.92119 C 262.4062 63.62327 255.83559 60.779602 250.90356 63.2325 C 248.72406 64.21986 246.52884 65.783134 245.49341 68.010704 C 245.61842 69.79686 247.04773 72.482 248.0 74.5 C 246.02596 76.02108 243.9591 78.0541 243.7067 80.20051 C 243.18571 82.14735 245.8867 84.28554 246.0 86.6875 C 244.64163 87.66687 243.39488 89.33612 242.0 90.0 C 242.0 90.1875 242.0 90.375 242.0 90.5625 Z M 262.0 85.625 C 262.00812 86.12527 262.11502 86.57531 262.375 87.0 C 271.8556 87.82813 281.21976 89.87178 290.58524 91.41501 C 295.32562 92.31646 299.97 93.65377 304.57245 95.04944 C 308.16803 96.233154 313.7009 97.91064 314.0 103.0 C 307.19537 103.0 300.40463 103.0 293.6 103.0 C 288.72412 103.27639 282.80872 102.4921 278.44153 103.694496 C 270.25586 106.24884 272.13834 116.483154 272.0 122.699554 C 272.0006 130.2325 271.99924 137.74731 272.0004 145.2672 C 271.8725 149.02943 271.84787 153.91637 275.77863 156.87912 C 280.84134 160.39502 289.0774 158.2998 294.7214 159.0 C 301.29816 159.0 307.82556 159.0 314.3864 159.0 C 323.28046 158.65657 332.20947 159.44553 341.06998 158.69371 C 351.65686 156.58234 348.48447 144.83218 349.0 137.51895 C 349.0 132.15282 349.0 126.83583 349.0 121.48553 C 349.1083 114.999916 350.61624 104.5792 340.5735 103.25173 C 332.72775 102.64753 324.84985 103.26856 317.0 103.0 C 315.55267 94.74081 304.6417 92.212395 297.84216 90.45114 C 286.7534 86.95361 274.5039 87.16638 263.5 84.0 C 262.9578 84.51146 262.32336 85.02605 262.0 85.625 Z M 293.0 121.5 C 293.0 121.99934 293.0 122.50663 293.0 123.0 C 295.33005 123.0 297.67728 123.0 300.0 123.0 C 300.0 129.67215 300.0 136.33922 300.0 143.0 C 301.67783 143.0 303.33063 143.0 305.0 143.0 C 305.0 136.33087 305.0 129.6638 305.0 123.0 C 307.00284 123.0 309.00748 123.0 311.0 123.0 C 311.0 121.65595 311.0 120.3365 311.0 119.0 C 305.35336 119.26593 297.46265 118.400734 293.0 120.0 C 293.0 120.51002 293.0 120.99659 293.0 121.5 Z M 330.0 138.0 C 327.18417 138.29823 323.82187 139.41046 320.54694 138.217 C 317.05557 135.54205 317.3483 130.47585 318.4504 126.85236 C 320.57263 123.250496 325.29877 122.11457 328.5 125.0 C 329.6014 121.611755 327.32812 119.94133 324.55984 119.492905 C 320.8949 118.82714 317.00638 120.113235 314.84433 123.139534 C 311.85522 127.03508 311.6196 132.2989 313.31256 136.79103 C 315.2713 142.71301 321.70724 144.07986 326.73328 142.1299 C 328.72412 141.80473 329.53864 139.68977 330.0 138.0 Z " />
</g>
</svg>
