<?xml version="1.0" encoding="UTF-8"?>
<svg xmlns="http://www.w3.org/2000/svg" xmlns:xlink="http://www.w3.org/1999/xlink" width="800.0px" height="500.0px" viewBox="0 0 800.0 500.0" version="1.1">

<defs>
<!-- polycosvg ratio="1.000000" offsetx="0.000000" offsety="0.000000" / -->
</defs><g>
<path style="fill:rgb(100.0%,100.0%,100.0%);fill-rule:evenodd;stroke:none;" name="Path No.27" d="M 0.0 500.0 C 9.670359 500.0 19.34199 500.0 29.0 500.0 C 29.0 499.50067 29.0 498.99338 29.0 498.5 C 18.568676 484.38763 9.172313 469.18018 0.5 454.0 C -0.89978164 468.98605 0.733115 484.83234 0.0 500.0 Z M 31.0 310.0 C 32.677834 310.0 34.330612 310.0 36.0 310.0 C 36.051407 307.54306 35.808823 304.19473 37.5 302.0 C 38.3882 304.11584 37.71915 307.35507 38.0 310.0 C 39.677834 310.0 41.330612 310.0 43.0 310.0 C 43.0 307.33414 43.0 304.66284 43.0 302.0 C 43.663906 302.0 44.339565 302.0 45.0 302.0 C 45.0 304.66586 45.0 307.33716 45.0 310.0 C 46.677834 310.0 48.330612 310.0 50.0 310.0 C 49.989605 308.33273 50.16198 306.63144 50.5 305.0 C 51.50437 310.3024 56.421684 310.15848 60.086662 310.0 C 60.736954 310.0 61.357456 310.0 62.0 310.0 C 62.22426 306.1925 63.370197 302.17032 61.31789 298.69235 C 59.404484 295.74866 53.57259 297.48886 51.88272 299.15225 C 50.995075 299.71814 50.854057 301.2934 50.5 302.0 C 49.97299 296.76828 45.29322 296.86246 41.68184 296.76837 C 38.12214 296.29376 34.56443 296.98038 31.0 297.0 C 31.0 301.3298 31.0 305.6724 31.0 310.0 Z M 37.0 139.5 C 37.0 139.99934 37.0 140.50664 37.0 141.0 C 39.330044 141.0 41.677265 141.0 44.0 141.0 C 44.151917 139.29898 44.595795 137.6541 45.0 136.0 C 47.330044 136.0 49.677265 136.0 52.0 136.0 C 52.151917 137.70102 52.595795 139.3459 53.0 141.0 C 55.330044 141.0 57.677265 141.0 60.0 141.0 C 60.0 140.50066 60.0 139.99336 60.0 139.5 C 57.529583 133.08093 55.725803 125.04053 52.65735 119.49287 C 51.713383 115.80094 44.80479 117.26742 44.137207 119.82971 C 42.34045 122.886635 41.494392 126.36315 40.263546 129.6506 C 39.385773 132.88747 37.709663 136.91583 37.0 139.5 Z M 39.0 231.0 C 41.002853 231.0 43.00748 231.0 45.0 231.0 C 45.0 227.49028 45.0 223.99954 45.0 220.5 C 45.169968 219.9901 45.331684 219.50494 45.5 219.0 C 48.547337 224.50558 50.887817 231.99239 59.0 231.0 C 59.0 223.00677 59.0 214.99323 59.0 207.0 C 57.34409 207.17543 55.03228 207.15532 53.882145 208.32455 C 53.103043 209.9199 53.187763 212.45648 52.946823 213.87083 C 53.018303 214.95015 52.884106 215.98808 52.5 217.0 C 50.476463 211.69223 46.74229 203.94498 39.0 208.0 C 39.0 215.67947 39.0 223.33595 39.0 231.0 Z M 40.0 53.0 C 42.002853 53.0 44.00748 53.0 46.0 53.0 C 46.0 50.33413 46.0 47.662834 46.0 45.0 C 51.990356 45.528637 59.814697 41.35554 57.1339 32.919346 C 55.9434 27.912243 49.422684 27.065712 44.89255 27.12966 C 43.39252 26.878706 41.56237 27.315563 40.0 28.0 C 40.0 36.35001 40.0 44.663876 40.0 53.0 Z M 46.0 39.0 C 48.342735 39.2391 51.085205 37.379955 49.519264 34.485294 C 46.30974 31.097876 45.111332 37.03094 46.0 39.0 Z M 49.0 131.0 C 49.04155 129.96089 48.944397 128.94438 48.5 128.0 C 46.86774 128.84698 46.29976 131.07736 49.0 131.0 Z M 56.0 305.3125 C 56.33842 306.05884 57.505215 305.7979 58.060238 305.67902 C 58.369755 305.62006 58.699635 305.55722 59.0 305.5 C 58.003014 305.32874 57.00953 305.08572 56.0 305.0 C 56.0 305.10416 56.0 305.20834 56.0 305.3125 Z M 192.0 34.0 C 194.33005 34.0 196.67726 34.0 199.0 34.0 C 199.0 40.669132 199.0 47.3362 199.0 54.0 C 201.33005 54.0 203.67726 54.0 206.0 54.0 C 206.0 47.330868 206.0 40.6638 206.0 34.0 C 207.99768 34.0 210.00232 34.0 212.0 34.0 C 212.0 31.997149 212.0 29.992517 212.0 28.0 C 205.77502 28.426271 196.92365 27.240395 192.0 29.0 C 192.0 30.687332 192.0 32.31511 192.0 34.0 Z M 213.0 54.0 C 215.33005 54.0 217.67726 54.0 220.0 54.0 C 220.21814 50.455395 219.65504 46.167625 220.5 43.0 C 222.00653 46.403442 223.59096 50.59769 224.0 54.0 C 226.33005 54.0 228.67726 54.0 231.0 54.0 C 231.97221 49.514164 234.39008 45.4436 235.5 41.0 C 236.33368 45.276627 235.80681 49.68011 236.0 54.0 C 238.33005 54.0 240.67726 54.0 243.0 54.0 C 241.92256 46.255962 244.533 35.73526 241.63329 29.83434 C 239.57758 26.83511 232.8803 28.728756 232.30806 31.431236 C 230.92822 34.28557 229.3842 38.41175 229.0 41.0 C 228.33609 41.0 227.66043 41.0 227.0 41.0 C 226.49985 37.43209 224.32779 32.77292 222.74602 30.283226 C 221.38425 26.62131 215.44514 29.118301 213.0 29.0 C 213.0 37.337666 213.0 45.67084 213.0 54.0 Z " />

<path style="fill:rgb(0.0%,0.0%,0.0%);fill-rule:evenodd;stroke:none;" name="Path No.28" d="M 47.0 68.0 C 47.0 79.34865 47.0 90.66202 47.0 102.0 C 40.9975 102.0 35.0025 102.0 29.0 102.0 C 21.471321 101.316536 9.71321 100.83451 10.049318 112.78298 C 9.913572 121.70367 10.069989 130.60599 10.0 139.51451 C 9.28222 146.9569 9.088707 158.34082 20.770908 157.95045 C 29.504227 158.08638 38.26794 157.93015 47.0 158.0 C 47.0 168.9942 47.0 180.0058 47.0 191.0 C 41.201466 191.0 35.398537 191.0 29.6 191.0 C 22.422886 190.4474 11.107645 189.82571 11.076764 201.18909 C 10.872457 209.91118 11.101955 218.61696 11.0 227.32681 C 10.883404 234.21643 9.029409 245.72047 19.993252 246.81845 C 28.644814 247.27827 37.346947 246.78224 46.0 247.0 C 46.0 257.67813 46.0 268.3272 46.0 279.0 C 33.226917 279.0411 22.172903 291.3689 23.049204 303.9321 C 22.984898 317.02454 35.695133 328.10474 48.51349 326.93423 C 61.797493 326.8213 72.41476 314.06363 70.91177 301.0939 C 70.43133 289.81427 60.157295 279.71054 49.0 279.0 C 49.0 268.32187 49.0 257.6728 49.0 247.0 C 55.41181 247.0 61.80255 247.0 68.2 247.0 C 72.65814 246.78392 78.123535 247.49431 82.06127 246.11989 C 89.69227 242.62698 87.63923 235.16994 88.0 228.48811 C 88.0 221.56009 88.0 214.63206 88.0 207.70404 C 87.98096 203.60384 88.377304 199.23032 86.462296 195.44765 C 82.43127 189.73328 74.969246 191.12831 69.526665 191.0 C 63.025047 191.0 56.501167 191.0 50.0 191.0 C 50.0 180.0058 50.0 168.9942 50.0 158.0 C 56.00463 158.0 61.99537 158.0 68.0 158.0 C 75.52868 158.68347 87.28679 159.1655 86.95068 147.21703 C 87.086426 138.29634 86.93001 129.39401 87.0 120.48549 C 87.71778 113.043106 87.91129 101.65919 76.229095 102.04954 C 67.49577 101.91363 58.73206 102.06986 50.0 102.0 C 50.0 90.65135 50.0 79.33798 50.0 68.0 C 59.748005 67.379845 71.440994 68.82509 80.304855 67.3852 C 89.75331 64.60956 86.42733 48.704475 87.0 42.0 C 117.32941 42.0 147.68126 42.0 178.0 42.0 C 178.6582 49.344837 176.33167 61.3028 181.0304 66.217094 C 184.0075 69.20591 188.50433 69.02374 192.37865 69.0 C 196.74866 69.0 201.11867 69.0 205.48868 69.0 C 218.02406 68.978294 230.52321 69.026474 243.04364 68.9857 C 259.23196 70.337105 254.54774 49.850136 255.0 40.986816 C 254.35185 32.78228 259.3296 12.68304 243.60887 13.029828 C 231.08582 12.944762 218.57098 13.045295 206.05856 13.0 C 198.10309 13.955569 187.48473 11.277606 181.57677 15.300476 C 175.71506 20.824429 179.0957 32.095966 178.0 39.0 C 147.65671 39.0 117.33263 39.0 87.0 39.0 C 86.341805 31.655165 88.66833 19.6972 83.9696 14.782903 C 80.992485 11.794089 76.495674 11.976254 72.62135 12.0 C 68.25134 12.0 63.881336 12.0 59.511326 12.0 C 46.975945 12.0217085 34.4768 11.973526 21.95636 12.014296 C 5.7413626 10.6053915 10.425591 30.935862 10.0 39.89081 C 11.017806 49.22177 6.8939333 63.12076 16.325214 67.25807 C 26.393324 69.04027 36.851643 67.20704 47.0 68.0 Z M 32.0 309.0 C 32.983627 309.0 34.016373 309.0 35.0 309.0 C 34.89236 305.743 35.1028 302.3406 37.5 300.0 C 37.999336 300.0 38.50663 300.0 39.0 300.0 C 39.0 302.9838 39.0 306.0162 39.0 309.0 C 39.983627 309.0 41.016373 309.0 42.0 309.0 C 42.0 306.33414 42.0 303.66284 42.0 301.0 C 43.340027 300.66498 44.662235 300.33444 46.0 300.0 C 46.0 302.9838 46.0 306.0162 46.0 309.0 C 46.983627 309.0 48.016373 309.0 49.0 309.0 C 48.494316 305.80515 49.91922 300.3547 47.12507 298.6152 C 44.24252 298.03442 40.966305 298.96606 38.5 297.0 C 36.42271 298.73868 34.28347 298.40332 32.0 298.0 C 32.0 301.66156 32.0 305.34897 32.0 309.0 Z M 38.0 139.5 C 39.21437 140.31018 41.350582 139.76765 43.0 140.0 C 43.151917 138.29898 43.595795 136.6541 44.0 135.0 C 46.98995 135.0 50.022354 135.0 53.0 135.0 C 53.151917 136.70102 53.595795 138.3459 54.0 140.0 C 55.682728 139.9896 57.38693 140.00735 59.0 139.5 C 55.351295 133.13222 55.205105 124.77182 50.59339 118.849625 C 46.013752 116.85353 44.573402 121.05537 43.40243 124.48311 C 42.126656 128.10959 40.867985 131.76852 39.69654 135.42601 C 39.452038 137.04126 38.736664 138.35156 38.0 139.5 Z M 40.0 230.0 C 41.34405 230.0 42.663494 230.0 44.0 230.0 C 44.398487 225.02531 43.434845 218.03603 44.5 214.0 C 46.054447 217.36671 47.984673 220.48021 49.816013 223.69104 C 51.254448 227.06844 53.150154 230.55794 58.0 230.0 C 58.0 222.65746 58.0 215.33188 58.0 208.0 C 57.336094 208.0 56.660435 208.0 56.0 208.0 C 52.25163 210.80324 55.31835 217.66774 53.5 222.0 C 50.7988 216.31729 47.212936 205.56808 40.0 209.0 C 40.0 215.99911 40.0 223.00127 40.0 230.0 Z M 41.0 52.0 C 42.34405 52.0 43.663494 52.0 45.0 52.0 C 45.0 49.33413 45.0 46.662834 45.0 44.0 C 50.353046 44.52203 59.707954 40.072407 55.45709 32.401836 C 53.908627 28.835812 48.306602 28.195314 43.995564 28.258717 C 42.95836 28.164915 41.913456 28.777134 41.0 29.0 C 41.0 36.679478 41.0 44.33595 41.0 52.0 Z M 45.0 40.0 C 48.184975 40.59328 53.191265 38.689034 50.874176 34.110813 C 50.176964 32.553646 47.46662 31.44311 45.889824 33.08073 C 44.294464 34.373116 45.408928 38.305855 45.0 40.0 Z M 46.0 132.0 C 47.677834 132.0 49.330612 132.0 51.0 132.0 C 50.268364 129.48201 49.228672 126.04293 48.5 124.0 C 46.59522 126.08398 46.01645 129.5539 46.0 132.0 Z M 61.0 309.0 C 61.020443 307.9566 60.892548 306.9678 60.5 306.0 C 58.91352 307.03577 56.663715 306.97696 55.0 307.0 C 55.0 306.012 55.0 304.97925 55.0 304.0 C 57.330044 304.0 59.677265 304.0 62.0 304.0 C 62.0 303.50067 62.0 302.99338 62.0 302.5 C 61.327217 299.54114 57.33933 296.12518 54.017826 299.167 C 52.749107 300.14954 52.086987 301.12784 51.938797 302.63828 C 51.574253 303.68027 52.313034 305.68155 52.85659 306.65512 C 54.34428 308.48236 56.81435 309.1259 59.66884 308.9992 C 60.10788 309.00006 60.608067 309.0002 61.0 309.0 Z M 59.0 301.5 C 57.907017 300.10883 56.556915 299.84152 55.0 300.0 C 54.906925 301.90842 56.411587 302.24362 57.852917 301.93503 C 58.293858 301.88928 58.68163 301.7534 59.0 301.5 Z M 193.0 31.5 C 193.0 31.999336 193.0 32.50663 193.0 33.0 C 195.33005 33.0 197.67726 33.0 200.0 33.0 C 200.0 39.669132 200.0 46.3362 200.0 53.0 C 201.67784 53.0 203.33061 53.0 205.0 53.0 C 205.0 46.330868 205.0 39.6638 205.0 33.0 C 207.00285 33.0 209.00748 33.0 211.0 33.0 C 211.0 31.655949 211.0 30.336504 211.0 29.0 C 205.35336 29.26593 197.46265 28.400736 193.0 30.0 C 193.0 30.51002 193.0 30.99659 193.0 31.5 Z M 214.0 53.0 C 215.67784 53.0 217.33061 53.0 219.0 53.0 C 219.0 47.839928 219.0 42.65474 219.0 37.5 C 219.16997 36.990097 219.33168 36.504948 219.5 36.0 C 221.05298 41.541817 224.46983 47.66893 225.0 53.0 C 226.67784 53.0 228.33061 53.0 230.0 53.0 C 231.35216 46.92818 235.0607 40.49247 236.5 35.0 C 237.43568 40.94629 236.73099 47.02463 237.0 53.0 C 238.67784 53.0 240.33061 53.0 242.0 53.0 C 241.4928 46.159534 242.80978 37.269756 241.09224 31.288118 C 239.25168 28.45192 234.72441 29.580421 233.40944 31.920612 C 232.2964 35.028767 230.8727 38.094147 229.70723 41.188183 C 229.27711 42.63241 228.54579 43.917385 227.5 45.0 C 225.22882 37.593575 222.67343 26.894495 214.0 30.0 C 214.0 37.670807 214.0 45.33859 214.0 53.0 Z " />

<path style="fill:rgb(46.27451%,46.27451%,46.27451%);fill-rule:evenodd;stroke:none;" name="Path No.29" d="M 44.0 214.4375 C 44.342556 214.84782 44.63123 214.73697 45.0 214.5 C 44.680393 214.29659 44.35574 214.06958 44.0 214.4375 Z " />
</g>
</svg>
