<?xml version="1.0" encoding="UTF-8"?>
<svg xmlns="http://www.w3.org/2000/svg" xmlns:xlink="http://www.w3.org/1999/xlink" width="800.0px" height="500.0px" viewBox="0 0 800.0 500.0" version="1.1">

<defs>
<!-- polycosvg ratio="1.000000" offsetx="0.000000" offsety="0.000000" / -->
</defs><g>
<path style="fill:rgb(100.0%,100.0%,100.0%);fill-rule:evenodd;stroke:none;" name="Path No.12" d="M 0.0 500.0 C 9.670359 500.0 19.34199 500.0 29.0 500.0 C 29.0 499.50067 29.0 498.99338 29.0 498.5 C 18.568676 484.38763 9.172313 469.18018 0.5 454.0 C -0.89978164 468.98605 0.733115 484.83234 0.0 500.0 Z M 31.0 310.0 C 32.677834 310.0 34.330612 310.0 36.0 310.0 C 36.051407 307.54306 35.808823 304.19473 37.5 302.0 C 38.3882 304.11584 37.71915 307.35507 38.0 310.0 C 39.677834 310.0 41.330612 310.0 43.0 310.0 C 43.0 307.33414 43.0 304.66284 43.0 302.0 C 43.663906 302.0 44.339565 302.0 45.0 302.0 C 45.0 304.66586 45.0 307.33716 45.0 310.0 C 46.677834 310.0 48.330612 310.0 50.0 310.0 C 49.989605 308.33273 50.16198 306.63144 50.5 305.0 C 51.50437 310.3024 56.421684 310.15848 60.086662 310.0 C 60.736954 310.0 61.357456 310.0 62.0 310.0 C 62.22426 306.1925 63.370197 302.17032 61.31789 298.69235 C 59.404484 295.74866 53.57259 297.48886 51.88272 299.15225 C 50.995075 299.71814 50.854057 301.2934 50.5 302.0 C 49.97299 296.76828 45.29322 296.86246 41.68184 296.76837 C 38.12214 296.29376 34.56443 296.98038 31.0 297.0 C 31.0 301.3298 31.0 305.6724 31.0 310.0 Z M 37.0 139.5 C 37.0 139.99934 37.0 140.50664 37.0 141.0 C 39.330044 141.0 41.677265 141.0 44.0 141.0 C 44.151917 139.29898 44.595795 137.6541 45.0 136.0 C 47.330044 136.0 49.677265 136.0 52.0 136.0 C 52.151917 137.70102 52.595795 139.3459 53.0 141.0 C 55.330044 141.0 57.677265 141.0 60.0 141.0 C 60.0 140.50066 60.0 139.99336 60.0 139.5 C 57.529583 133.08093 55.725803 125.04053 52.65735 119.49287 C 51.713383 115.80094 44.80479 117.26742 44.137207 119.82971 C 42.34045 122.886635 41.494392 126.36315 40.263546 129.6506 C 39.385773 132.88747 37.709663 136.91583 37.0 139.5 Z M 39.0 29.0 C 39.314148 35.866493 38.445023 44.180332 39.72248 50.34977 C 44.175507 54.440952 54.89796 51.08735 57.56364 47.48199 C 61.08416 42.389942 60.08883 31.438604 52.209743 28.85885 C 48.02489 27.575245 42.71954 27.861876 39.0 29.0 Z M 39.0 231.0 C 41.002853 231.0 43.00748 231.0 45.0 231.0 C 45.0 227.49028 45.0 223.99954 45.0 220.5 C 45.169968 219.9901 45.331684 219.50494 45.5 219.0 C 48.547337 224.50558 50.887817 231.99239 59.0 231.0 C 59.0 223.00677 59.0 214.99323 59.0 207.0 C 57.34409 207.17543 55.03228 207.15532 53.882145 208.32455 C 53.103043 209.9199 53.187763 212.45648 52.946823 213.87083 C 53.018303 214.95015 52.884106 215.98808 52.5 217.0 C 50.476463 211.69223 46.74229 203.94498 39.0 208.0 C 39.0 215.67947 39.0 223.33595 39.0 231.0 Z M 46.0 46.0 C 50.393856 46.40802 53.325676 42.722965 52.561985 38.80635 C 51.83178 35.385704 49.11127 33.740047 46.0 34.0 C 46.0 37.99914 46.0 42.00436 46.0 46.0 Z M 49.0 131.0 C 49.04155 129.96089 48.944397 128.94438 48.5 128.0 C 46.86774 128.84698 46.29976 131.07736 49.0 131.0 Z M 56.0 305.3125 C 56.33842 306.05884 57.505215 305.7979 58.060238 305.67902 C 58.369755 305.62006 58.699635 305.55722 59.0 305.5 C 58.003014 305.32874 57.00953 305.08572 56.0 305.0 C 56.0 305.10416 56.0 305.20834 56.0 305.3125 Z " />

<path style="fill:rgb(0.0%,0.0%,0.0%);fill-rule:evenodd;stroke:none;" name="Path No.13" d="M 47.0 68.0 C 47.0 79.34865 47.0 90.66202 47.0 102.0 C 40.9975 102.0 35.0025 102.0 29.0 102.0 C 21.471321 101.316536 9.71321 100.83451 10.049318 112.78298 C 9.913572 121.70367 10.069989 130.60599 10.0 139.51451 C 9.28222 146.9569 9.088707 158.34082 20.770908 157.95045 C 29.504227 158.08638 38.26794 157.93015 47.0 158.0 C 47.0 168.9942 47.0 180.0058 47.0 191.0 C 41.201466 191.0 35.398537 191.0 29.6 191.0 C 22.422886 190.4474 11.107645 189.82571 11.076764 201.18909 C 10.872457 209.91118 11.101955 218.61696 11.0 227.32681 C 10.883404 234.21643 9.029409 245.72047 19.993252 246.81845 C 28.644814 247.27827 37.346947 246.78224 46.0 247.0 C 46.0 257.67813 46.0 268.3272 46.0 279.0 C 33.226917 279.0411 22.172903 291.3689 23.049204 303.9321 C 22.984898 317.02454 35.695133 328.10474 48.51349 326.93423 C 61.797493 326.8213 72.41476 314.06363 70.91177 301.0939 C 70.43133 289.81427 60.157295 279.71054 49.0 279.0 C 49.0 268.32187 49.0 257.6728 49.0 247.0 C 55.41181 247.0 61.80255 247.0 68.2 247.0 C 72.65814 246.78392 78.123535 247.49431 82.06127 246.11989 C 89.69227 242.62698 87.63923 235.16994 88.0 228.48811 C 88.0 221.56009 88.0 214.63206 88.0 207.70404 C 87.98096 203.60384 88.377304 199.23032 86.462296 195.44765 C 82.43127 189.73328 74.969246 191.12831 69.526665 191.0 C 63.025047 191.0 56.501167 191.0 50.0 191.0 C 50.0 180.0058 50.0 168.9942 50.0 158.0 C 56.00463 158.0 61.99537 158.0 68.0 158.0 C 75.52868 158.68347 87.28679 159.1655 86.95068 147.21703 C 87.086426 138.29634 86.93001 129.39401 87.0 120.48549 C 87.71778 113.043106 87.91129 101.65919 76.229095 102.04954 C 67.49577 101.91363 58.73206 102.06986 50.0 102.0 C 50.0 90.65135 50.0 79.33798 50.0 68.0 C 56.00463 68.0 61.99537 68.0 68.0 68.0 C 75.52868 68.683464 87.28679 69.16549 86.95068 57.21702 C 87.086426 48.296333 86.93001 39.39401 87.0 30.485485 C 87.72227 23.037329 87.90446 11.6383505 76.20648 12.049125 C 67.25321 11.913875 58.32123 12.06975 49.380856 12.0 C 40.222294 12.0217085 31.099974 11.973526 21.95636 12.014296 C 17.820625 11.723133 13.413477 13.059076 11.3295765 16.920052 C 9.518714 20.076242 10.121531 25.023304 10.0 29.263283 C 10.0 35.37003 10.0 41.467785 10.0 47.57094 C 9.629718 55.050682 8.027227 67.624825 20.17947 67.923 C 29.119967 68.12932 38.060783 67.896355 47.0 68.0 Z M 32.0 309.0 C 32.983627 309.0 34.016373 309.0 35.0 309.0 C 34.89236 305.743 35.1028 302.3406 37.5 300.0 C 37.999336 300.0 38.50663 300.0 39.0 300.0 C 39.0 302.9838 39.0 306.0162 39.0 309.0 C 39.983627 309.0 41.016373 309.0 42.0 309.0 C 42.0 306.33414 42.0 303.66284 42.0 301.0 C 43.340027 300.66498 44.662235 300.33444 46.0 300.0 C 46.0 302.9838 46.0 306.0162 46.0 309.0 C 46.983627 309.0 48.016373 309.0 49.0 309.0 C 48.494316 305.80515 49.91922 300.3547 47.12507 298.6152 C 44.24252 298.03442 40.966305 298.96606 38.5 297.0 C 36.42271 298.73868 34.28347 298.40332 32.0 298.0 C 32.0 301.66156 32.0 305.34897 32.0 309.0 Z M 38.0 139.5 C 39.21437 140.31018 41.350582 139.76765 43.0 140.0 C 43.151917 138.29898 43.595795 136.6541 44.0 135.0 C 46.98995 135.0 50.022354 135.0 53.0 135.0 C 53.151917 136.70102 53.595795 138.3459 54.0 140.0 C 55.682728 139.9896 57.38693 140.00735 59.0 139.5 C 55.351295 133.13222 55.205105 124.77182 50.59339 118.849625 C 46.013752 116.85353 44.573402 121.05537 43.40243 124.48311 C 42.126656 128.10959 40.867985 131.76852 39.69654 135.42601 C 39.452038 137.04126 38.736664 138.35156 38.0 139.5 Z M 40.0 30.0 C 40.148056 36.21467 39.618668 43.71401 40.699825 49.296444 C 44.538494 53.419624 54.326515 49.799534 56.526047 46.511787 C 60.512867 41.102146 57.723656 31.738235 51.209213 29.858503 C 47.512653 28.651814 43.578743 28.890554 40.0 30.0 Z M 40.0 230.0 C 41.34405 230.0 42.663494 230.0 44.0 230.0 C 44.398487 225.02531 43.434845 218.03603 44.5 214.0 C 46.054447 217.36671 47.984673 220.48021 49.816013 223.69104 C 51.254448 227.06844 53.150154 230.55794 58.0 230.0 C 58.0 222.65746 58.0 215.33188 58.0 208.0 C 57.336094 208.0 56.660435 208.0 56.0 208.0 C 52.25163 210.80324 55.31835 217.66774 53.5 222.0 C 50.7988 216.31729 47.212936 205.56808 40.0 209.0 C 40.0 215.99911 40.0 223.00127 40.0 230.0 Z M 45.0 47.0 C 50.852177 48.02268 54.937927 43.880226 53.621822 38.344856 C 53.067738 33.265682 49.080986 32.697414 45.0 33.0 C 45.0 37.658455 45.0 42.34314 45.0 47.0 Z M 46.0 132.0 C 47.677834 132.0 49.330612 132.0 51.0 132.0 C 50.268364 129.48201 49.228672 126.04293 48.5 124.0 C 46.59522 126.08398 46.01645 129.5539 46.0 132.0 Z M 61.0 309.0 C 61.020443 307.9566 60.892548 306.9678 60.5 306.0 C 58.91352 307.03577 56.663715 306.97696 55.0 307.0 C 55.0 306.012 55.0 304.97925 55.0 304.0 C 57.330044 304.0 59.677265 304.0 62.0 304.0 C 62.0 303.50067 62.0 302.99338 62.0 302.5 C 61.327217 299.54114 57.33933 296.12518 54.017826 299.167 C 52.749107 300.14954 52.086987 301.12784 51.938797 302.63828 C 51.574253 303.68027 52.313034 305.68155 52.85659 306.65512 C 54.34428 308.48236 56.81435 309.1259 59.66884 308.9992 C 60.10788 309.00006 60.608067 309.0002 61.0 309.0 Z M 59.0 301.5 C 57.907017 300.10883 56.556915 299.84152 55.0 300.0 C 54.906925 301.90842 56.411587 302.24362 57.852917 301.93503 C 58.293858 301.88928 58.68163 301.7534 59.0 301.5 Z " />

<path style="fill:rgb(46.27451%,46.27451%,46.27451%);fill-rule:evenodd;stroke:none;" name="Path No.14" d="M 44.0 214.4375 C 44.342556 214.84782 44.63123 214.73697 45.0 214.5 C 44.680393 214.29659 44.35574 214.06958 44.0 214.4375 Z " />
</g>
</svg>
